<?xml version="1.0" encoding="UTF-8" standalone="no"?>
<!DOCTYPE svg PUBLIC "-//W3C//DTD SVG 1.1//EN" "http://www.w3.org/Graphics/SVG/1.1/DTD/svg11.dtd">
<svg width="100%" height="100%" viewBox="0 0 837 601" version="1.1" xmlns="http://www.w3.org/2000/svg" xmlns:xlink="http://www.w3.org/1999/xlink" xml:space="preserve" xmlns:serif="http://www.serif.com/" style="fill-rule:evenodd;clip-rule:evenodd;stroke-linejoin:round;stroke-miterlimit:2;">
    <g id="Artboard1" transform="matrix(1,0,0,1,-82.4962,-213.499)">
        <rect x="82.496" y="213.499" width="836.797" height="600.535" style="fill:none;"/>
        <g>
            <g>
                <g>
                    <clipPath id="_clip1">
                        <rect x="82.496" y="213.499" width="836.797" height="600.535"/>
                    </clipPath>
                    <g clip-path="url(#_clip1)">
                        <g transform="matrix(1,0,0,1,0.496201,0.498668)">
                            <g>
                                <path d="M551.5,657C568.041,667.112 589.902,684.345 592.346,687.473C594.567,690.315 593.004,693.777 589.566,694.323C587.709,694.617 584.634,691.351 583.5,690.5C569.209,679.776 555.366,668.411 540.5,658.5C539.716,657.977 529.126,650.649 524.807,648.727C519.629,646.424 497.492,631.798 490,628.5C489.4,628.236 488.589,627.957 488,627.5C486.259,626.147 482.847,624.804 479.551,620.383C476.589,616.41 484.871,615.589 486.196,616.358C492.482,620.006 497.397,625.694 503.568,629.534C519.202,639.264 535.789,647.396 551.5,657Z" style="fill:rgb(89,63,56);"/>
                                <path d="M575.5,709.5C574.766,710.708 574.433,712.041 574.5,713.5C571.729,713.579 569.063,713.079 566.5,712C558.278,707.396 551.333,702.097 543.555,697.035C540.413,694.066 513.487,676.828 504.5,670C500.423,666.015 498.423,661.181 498.5,655.5C499.552,655.351 500.552,655.517 501.5,656C510.48,664.651 547.833,690.083 559.5,698C563.141,700.471 570.778,703.082 571.5,703.5C573.962,705.167 575.295,707.167 575.5,709.5Z" style="fill:rgb(89,63,56);"/>
                                <path d="M292.5,552.5C250.385,528.546 205.385,512.38 157.5,504C154.876,503.424 154.209,502.09 155.5,500C159.307,498.119 163.307,496.953 167.5,496.5C171.514,496.334 175.514,496.501 179.5,497C210.965,504.709 241.299,515.376 270.5,529C285.017,538.094 300.017,546.428 315.5,554C317.473,554.495 319.473,554.662 321.5,554.5C320.847,555.807 320.18,557.14 319.5,558.5C320.246,559.736 320.579,561.07 320.5,562.5C316.313,562.605 312.313,561.772 308.5,560C303.235,557.199 297.901,554.699 292.5,552.5Z" style="fill:rgb(89,63,56);"/>
                                <path d="M208.5,472.5C211.782,471.634 215.115,471.801 218.5,473C240.632,479.764 262.299,487.598 283.5,496.5C294.228,501.364 304.895,506.531 315.5,512C321.372,517.376 327.372,522.543 333.5,527.5C333.5,528.167 333.167,528.5 332.5,528.5C316.505,517.678 299.838,508.845 282.5,502C258.344,491.963 233.678,483.463 208.5,476.5L208.5,472.5Z" style="fill:rgb(89,63,56);"/>
                                <g transform="matrix(1,0,0,1,82,213)">
                                    <path d="M264.5,0.5C267.417,0.417 271.606,4.27 275.5,5C279.5,5.75 284.562,3.192 288.5,5C347.159,31.927 361.5,25.167 387.5,31C406.269,35.211 431.833,37 444.5,40C451.319,41.615 458.167,45 463.5,49C468.793,52.97 471.507,59.659 476.5,64C491.167,76.75 526.132,105.478 551.5,125.5C562.955,119.271 574.83,113.616 587.5,111C600.881,108.237 619.619,108.091 631.785,108.924C641.62,109.598 651.852,111.268 660.5,116C673.619,123.179 697.667,143.667 710.5,152C719.003,157.521 730.667,163.333 737.5,166C741.891,167.714 746.81,167.497 751.5,168C765.022,168.211 783.486,169.108 792,169.5C795.535,169.662 799.915,169.516 802.582,170.349C805.249,171.182 805.75,172.417 808,174.5C810.075,176.422 812.487,178.11 814,180.5C815.583,183 818.906,186.605 817.5,189.5C816.083,192.417 807.924,193.74 805.5,198C802.75,202.833 799.269,210.871 801,218.5C804.113,237.262 814.28,250.428 831.5,258C836.231,260.956 837.367,267.029 836.303,272.407C834.854,277.306 833.781,281.089 831,284.5C820.116,297.849 790.525,330.442 771,352.5C751.986,373.981 733.115,395.592 713.851,416.849C694.518,438.183 673.503,458.305 655,480.5C630.108,510.358 581.806,575.975 564.5,596C561.422,599.562 556.153,600.83 551.165,600.65C546.31,600.474 540.556,596.16 535.5,593C530.167,589.667 525.085,584.639 519.5,581C512.548,576.469 500.772,569.441 493.79,565.818C485.616,561.578 481.759,558.738 476.592,556.488C472.216,554.583 449.439,541.963 446.606,540.546C445.273,539.879 416.028,524.355 401.5,515C382.982,503.075 343.498,474.668 335.5,469C333.291,467.127 331.458,464.96 330,462.5C328.2,464.317 326.034,465.484 323.5,466C317.512,467.231 311.167,469.5 305.5,469.5C300.041,469.5 294.949,466.65 289.5,466C285.721,465.549 284.33,463.991 281.5,461C278.668,458.006 276.731,454.382 273.5,452C269.121,448.771 246.66,438.927 243.094,436.778C228.46,431.83 229.404,431.118 219.5,427.5C211.11,422.316 209.746,421.61 207.03,416.872C203.645,410.968 199.026,397.248 199.192,392.078C172.917,381.501 153.614,376.893 129.5,367C100.104,356.535 70.437,346.868 40.5,338C21.438,332.353 13.667,322.666 7,316.5C2.887,312.695 2.273,306.316 0.5,301C0.439,299.289 1.106,297.956 2.5,297C15.764,290.862 28.764,283.862 41.5,276C52.585,266.665 58.418,254.832 59,240.5C57.861,236.888 50.903,224.435 48.247,221.939C46.462,217.151 41.203,214.826 44,211.5C47.083,207.833 56.975,205.399 63.5,202.5C64.192,203.025 85.137,190.02 94.184,184.496L102.5,178C121.167,164.333 139.833,150.667 158.5,137C194.548,110.607 205.802,87.03 230,62.5C251.178,34.41 252.25,15.833 258,5.5C259.329,3.111 261.768,0.578 264.5,0.5ZM789.5,196.5C780.568,203.929 772.068,211.929 764,220.5C746.758,238.405 730.258,256.905 714.5,276C715.352,277.728 716.352,277.895 717.5,276.5C738.59,253.92 771.667,225.833 784,212.5C788,208.176 788.527,202.129 791.5,196.5C791.03,195.537 790.363,195.537 789.5,196.5ZM28.5,295.5C26.25,299.299 22.917,301.632 18.5,302.5C17.479,303.002 17.312,303.668 18,304.5C31.964,313.897 47.13,320.73 63.5,325C108.384,346.074 154.717,363.408 202.5,377C206.167,378.667 209.833,380.333 213.5,382C214.98,384.247 215.647,386.747 215.5,389.5C212.96,396.311 214.626,401.811 220.5,406C231.062,412.561 241.062,419.894 250.5,428C258.158,432.369 266.158,435.703 274.5,438C280.833,443 287.167,448 293.5,453C305.19,455.14 310.857,450.306 310.5,438.5C299.018,436.2 289.685,430.367 282.5,421C266.475,419.42 252.141,413.753 239.5,404C231.448,396.508 228.615,387.342 231,376.5C232.039,374.099 232.206,371.766 231.5,369.5C164.116,344.039 96.449,319.372 28.5,295.5ZM467.5,509.5C422.721,481.605 378.054,453.438 333.5,425C331.861,423.481 330.194,423.314 328.5,424.5C325.071,428.722 320.738,431.722 315.5,433.5C314.479,434.002 314.312,434.668 315,435.5C328.067,445.285 341.567,454.452 355.5,463C356.833,464.333 362.538,466.735 361.205,468.068C388.034,485.983 409.329,502.582 436.5,520C466.219,534.194 495.886,548.361 525.5,562.5C534.137,567.153 542.803,571.819 551.5,576.5C550.696,574.982 550.696,573.148 551.5,571C557.51,571.038 563.176,569.705 568.5,567C593.661,537.497 617.495,506.997 640,475.5C665.924,444.905 692.591,414.905 720,385.5C727.379,377.123 734.379,368.456 741,359.5C771.315,331.675 799.148,301.342 824.5,268.5C822.183,266.945 819.849,265.778 817.5,265C772.667,312.5 727.833,360 683,407.5C664.628,427.536 646.628,447.87 629,468.5C604.772,501.118 579.938,533.285 554.5,565C553.092,565.315 551.759,564.982 550.5,564C542.284,558.278 533.951,552.778 525.5,547.5C505.874,535.193 486.54,522.526 467.5,509.5ZM533.5,148.5C530.261,150.617 525.266,149.548 522.327,151.651C518.714,154.238 471.071,207.772 462.386,214.078C436.553,241.245 410.167,266.667 383,292.5C361.496,314.337 340.33,336.504 319.5,359C316.653,360.852 314.153,360.352 312,357.5L309,360.5C309.594,362.482 310.76,364.316 312.5,366C332.477,366.899 352.477,369.066 372.5,372.5C386.416,375.416 400.083,379.249 413.5,384C433.047,393.274 452.551,402.509 472.337,411.235C493.692,422.287 507.621,430.995 522.5,445C531.077,453.073 539.077,461.573 546.5,470.5C546.654,469.091 545.889,466.754 547,465.5C560.583,450.167 603.825,410.013 628,378.5C631.201,374.964 634.701,371.797 638.5,369C632.542,369.044 630.375,366.21 632,360.5C636.048,356.12 639.715,351.454 643,346.5C648.497,336.169 654.497,326.169 661,316.5C682.436,294.237 703.269,271.571 723.5,248.5C740.272,232.229 756.938,215.729 773.5,199C779.833,194.5 783.448,190.382 789.781,185.882C790.875,184.514 791.021,181.872 789.261,180.907C784.872,178.61 781.436,179.451 776.492,179.414C757.278,180.598 746.773,178.945 734.5,176C723.418,173.341 711.951,165.143 703.86,160.829C697.723,157.557 692.139,152.898 686.485,148.648C680.758,144.343 675.587,139.293 669.5,135C663.091,130.48 655.731,125.447 647.5,123C604.82,111.535 565.61,127.506 533.5,148.5ZM634.068,394.089C633.771,394.456 633.263,395.094 632.825,395.566C623.48,405.635 578.217,455.687 578,454.5C569,462.167 557.942,471.876 553,479.5C549.146,485.445 547.397,493.671 548.347,500.24C550.129,512.556 550.646,514.359 554.726,522.392C556.133,525.162 560.606,530.176 562.5,532.5C567.152,528.349 573.083,523.667 576,519.5C578.418,516.046 577.387,510.809 580,507.5C595,488.5 648.107,426.357 666,405.5C672.835,397.532 680.055,389.896 687.359,382.356C699.564,369.756 739.229,330.16 739.234,329.898C754.577,316.054 770.51,299.656 785.5,285.5C783.826,283.651 782.826,281.484 782.5,279C786.151,270.842 791.818,264.342 799.5,259.5C794.606,249.257 790.939,238.59 788.5,227.5C787.518,225.594 786.518,223.594 785.5,221.5C779.851,225.483 774.851,230.149 770.5,235.5C755.446,248.554 741.167,264.667 728.5,277.5C717.074,289.076 702.39,304.398 694.5,312.5C682.494,321.839 671.479,332.378 662.5,344.5C652.428,358.098 657.213,372.833 634.068,394.089ZM65.5,218.5C107.867,229.668 163.874,240.135 191.434,247.663C205.116,251.401 218.654,256.445 230.859,263.67C245.454,272.31 267.477,283.861 279,299.5C290.524,315.138 296.759,336.776 300,357.5C334.461,326.707 367.961,294.874 400.5,262C402.134,261.506 446.209,215.378 464.5,196C480.052,179.523 495.747,163.853 510.248,145.729C513.246,142.562 519.667,138.85 523.064,136.1C526.38,133.414 534.794,131.502 532.766,127.747C530.171,122.94 513.471,112.706 507.49,107.263C496.353,97.126 488.029,92.863 477.5,82C459.876,69.351 457.603,59.158 437.227,51.141C422.304,47.278 393.736,42.113 376.948,39.59C363.563,37.578 349.241,38.932 336.5,36C323.952,33.113 310.743,24.608 300.5,22C292.259,19.902 282.352,19.186 275.041,20.351C270.811,29.143 266.714,39.326 261.317,48.056C255.92,56.785 248.924,65.888 242.656,72.729C227.853,88.886 194.069,126.235 172.5,145C154.476,160.681 131.076,173.069 113.243,185.319C97.268,196.292 81.227,206.952 65.5,218.5ZM358.439,431.243C359.074,431.793 399.472,457.836 413.5,467C430.807,475.495 445.344,484.696 461.371,495.201C463.205,497.206 469.689,500.104 472.412,501.94C480.767,507.573 526.178,537.187 532.5,541.5C537.138,544.489 541.805,547.489 546.5,550.5L547.5,549.5C546.44,546.532 543.291,541.086 543.5,540.5C538.343,524.576 536.343,508.576 537.5,492.5C537.855,486.775 538.566,480.717 535.804,475.883C532.47,470.05 524.501,463.665 517.5,457.5C507.879,445.883 496.213,436.883 482.5,430.5C466.751,423.459 449.155,413.028 436.5,407C426.719,402.34 416.153,397.168 406.57,394.327C389.993,389.411 373.066,384.246 360.721,381.358C351.452,379.19 341.134,378.263 332.5,377C324.988,376.178 317.655,376.345 310.5,377.5C308.436,377.313 306.436,376.813 304.5,376C296.386,368.117 287.608,365.067 283.019,358.3C278.586,351.766 278.363,339.107 276.961,335.4C274.692,321.989 267.736,310.988 263.016,305.586C260.737,302.978 257.269,299.242 255.719,297.97C249.966,293.247 244.747,290.277 238.5,286C227.51,280.507 216.843,274.507 206.5,268C202.178,266.062 197.845,264.229 193.5,262.5C166.731,253.778 139.397,247.278 111.5,243C106.253,241.928 101.253,240.428 96.5,238.5C87.513,235.838 78.513,233.171 69.5,230.5C69.76,235.496 72.093,239.663 76.5,243C82.55,245.405 93.357,252.311 92.5,253C84.841,253.5 77.174,253.666 69.5,253.5C69.278,256.39 68.539,267.038 65,272.5C61.167,278.417 51.524,281.962 46.5,289C50.079,291.754 54.079,293.754 58.5,295C69.236,297.801 79.883,301.855 85.717,304.188C88.549,305.321 183.432,339.587 203.5,348.5C215.485,353.221 227.485,358.054 239.5,363C244.68,368.551 246.346,375.051 244.5,382.5C240.371,388.294 241.038,393.794 246.5,399C258.009,404.226 270.009,407.726 282.5,409.5L282.5,406.5C273.65,403.408 265.317,399.242 257.5,394C250.735,393.734 247.068,390.234 246.5,383.5C248.735,374.772 254.402,369.605 263.5,368C283.09,366.458 297.424,374.291 306.5,391.5C309.877,398.962 311.544,406.629 311.5,414.5C313.65,416.149 315.65,417.982 317.5,420C318.577,420.47 319.577,420.303 320.5,419.5C323.846,418.104 327.179,416.604 330.5,415C323.66,412.468 322.25,403.083 321,400.5C320.675,399.829 322.315,399.206 323,399.5C324.75,400.25 328.565,403.285 331.5,405C341.427,408.476 351.427,411.643 361.5,414.5C375.989,421.078 390.322,428.245 404.5,436C407.288,438.523 408.621,441.69 408.5,445.5C404.278,445.737 400.111,445.404 396,444.5C390.261,441.38 381.94,436.27 374.5,433C366.917,429.666 353.832,423.91 350.5,424.5C351.147,425.494 351.459,425.711 352.272,426.459C352.767,427.367 357.664,430.571 358.439,431.243Z" style="fill:rgb(89,63,56);"/>
                                </g>
                                <path d="M607.5,775.5C577.886,761.361 548.219,747.194 518.5,733C491.329,715.582 468.467,698.699 441.638,680.784C442.971,679.451 438.833,677.333 437.5,676C423.567,667.452 410.067,658.285 397,648.5C396.312,647.668 396.479,647.002 397.5,646.5C402.738,644.722 407.071,641.722 410.5,637.5C412.194,636.314 413.861,636.481 415.5,638C460.054,666.438 504.721,694.605 549.5,722.5C568.54,735.526 587.874,748.193 607.5,760.5C615.951,765.778 624.284,771.278 632.5,777C633.759,777.982 635.092,778.315 636.5,778C661.938,746.285 686.772,714.118 711,681.5C728.628,660.87 746.628,640.536 765,620.5C809.833,573 854.667,525.5 899.5,478C901.849,478.778 904.183,479.945 906.5,481.5C881.148,514.342 853.315,544.675 823,572.5C816.379,581.456 809.379,590.123 802,598.5C774.591,627.905 747.924,657.905 722,688.5C699.495,719.997 675.661,750.497 650.5,780C645.176,782.705 639.51,784.038 633.5,784C632.696,786.148 632.696,787.982 633.5,789.5C624.803,784.819 616.137,780.153 607.5,775.5ZM110.5,508.5C178.449,532.372 246.116,557.039 313.5,582.5C314.206,584.766 314.039,587.099 313,589.5C310.615,600.342 313.448,609.508 321.5,617C334.141,626.753 348.475,632.42 364.5,634C371.685,643.367 381.018,649.2 392.5,651.5C392.857,663.306 387.19,668.14 375.5,666C369.167,661 362.833,656 356.5,651C348.158,648.703 340.158,645.369 332.5,641C323.062,632.894 313.062,625.561 302.5,619C296.626,614.811 294.96,609.311 297.5,602.5C297.647,599.747 296.98,597.247 295.5,595C291.833,593.333 288.167,591.667 284.5,590C236.717,576.408 190.384,559.074 145.5,538C129.13,533.73 113.964,526.897 100,517.5C99.312,516.668 99.479,516.002 100.5,515.5C104.917,514.632 108.25,512.299 110.5,508.5Z" style="fill:rgb(181,95,81);"/>
                            </g>
                        </g>
                    </g>
                </g>
            </g>
        </g>
    </g>
</svg>
