<svg xmlns="http://www.w3.org/2000/svg" viewBox="0 0 3792.41 264.46" preserveAspectRatio="none"><defs><style>.cls-1{fill:#404041;}</style></defs><title>nav-bottom-frame</title><g id="Layer_1" data-name="Layer 1"><path class="cls-1" d="M3791.55,137.08a16.14,16.14,0,0,0-3.68-.86c-6.4-.57-9.12-2.72-10.58-8.65-.25-1,.15-2.38-.34-3.16-1-1.64-2.19-3.63-3.76-4.36-9.76-4.51-13.77-14.71-9.83-25.2.61-1.61,1.2-4.27.45-5.19a39.82,39.82,0,0,0-7.63-6.92c-.66-.47-1.33-.92-2-1.36,0-.3.1-.59.15-.91,4.24-26.12,0,0,1.42-15.53s0,0,3.05-5.65-3.05,5.65-.94-12,0,0,0-3.53-12.7,11.3-14.82,6.36S3736,53.65,3743,36s11.29-18,11.29-18H3680.4c-1.08-.88-2.11-1.83-3.15-2.83-1.61-1.54-3.67-3.25-5.69-3.47-4.74-.53-9-2.07-13.47-3.72-1-.35-1.87-3.57-2.74-8h-5V.19L199.68,86.59c-.19.32-.38.65-.6,1a165.06,165.06,0,0,1-19.17,21.83c-.95,1.34-1.92,2.68-2.92,4a76.31,76.31,0,0,1-22.43,19.73c-14.61,8.68-31.28,14.32-47.78,18.14l-.81.18c-13.65,3.89-27.83,6.27-41.81,8.1-8.8,1.16-17.65,2-26.52,2.28-6.2.2-12.71.22-18.69-1.47-5.69,1.62-11.42,3-17.19,4.22-.1.47-.19.93-.33,1.41A40.21,40.21,0,0,1,0,170.08,126.49,126.49,0,0,1,14.62,173c11.16,3.19,15.82,15.73,10.46,25.7a31.34,31.34,0,0,1-5.4,7.25A91.4,91.4,0,0,1,39,210.07a17.75,17.75,0,0,1,11.17,10.11A86.4,86.4,0,0,1,76,223.83c9.39,3,14.38,13.41,12.16,22.07,2.8,5,3.23,11.17-.64,16.34-.58.78-1.17,1.51-1.77,2.22C1271.3,225.94,3514.43,168.38,3519,168.38c31.15,0,63,3,94.19,1.46,17.44-.87,35.28-.07,52.81,0,4.59,0,9.46.52,13.81-.07,15-2,30.62-1.49,46.24-1.45,16.33,0,32.95.64,48.89-4.33,1.51-4.58,5.45-8.69,3.52-15.09-.91-3,1.89-6,5.63-6.23,3.33-.15,6.21-1.09,8.3-3.86C3792,138,3791.88,137.2,3791.55,137.08Z"/></g></svg>