<svg id="Layer_1" data-name="Layer 1" xmlns="http://www.w3.org/2000/svg" viewBox="0 0 80.43 41.49"><defs><style>.cls-1{fill:#414142;}</style></defs><title>Untitled-1</title><path class="cls-1" d="M80.36,40.12A4.53,4.53,0,0,0,80.42,39c-.06-2.92-.15-5.83-.17-8.75,0-2.75,0-5.5,0-8.25,0-2.25,0-4.49,0-6.74,0-3.2.06-6.4,0-9.6,0-1.26.31-3.29-.1-4.59C78.61.69,77,1,75.49.75a.62.62,0,0,0-.33.05,4.4,4.4,0,0,1-2,.1.57.57,0,0,0-.72.39c1.16.39,2.33.06,3.48.14s2.42.27,3.74.43c0,.53,0,1.74,0,2.24,0,3,0,5.94,0,8.91,0,2.8-.16,5.61-.15,8.42,0,3.19.08,6.39,0,9.59-.08,2.41.12,4.82,0,7.24a4.6,4.6,0,0,1-.27,2,.36.36,0,0,0,0,.27c-2.67-.08-9.85-.2-10.71-.22q-4.55-.09-9.09-.12-6.15,0-12.3,0c-.72,0-1.45.16-2.18.16-2.07,0-4.15,0-6.23,0-1.17,0-2.35.1-3.53.07-2.64,0-5.27-.07-7.91.11-2,.13-3.93,0-5.9,0-2.64,0-5.27,0-7.91.07-2.92.06-5.83.21-8.75.29-1.06,0-2.12,0-3.29,0a3.24,3.24,0,0,1-.38-1c0-2.8.07-5.61.09-8.41,0-3,.06-5.95.05-8.93C1.1,19.72,1.25,3.27.89.6.86.4.85.2.84,0a5.46,5.46,0,0,1-.6.27L0,20.15a2.7,2.7,0,0,1,.07.63c0,.55,0,1.09-.08,1.62.08,1,0,1.92.06,2.87C.15,26.84.22,28.4.23,30A27.88,27.88,0,0,1,.14,34.4a4.1,4.1,0,0,1-.09,2,12.83,12.83,0,0,1,0,3c0,.39-.06.78,0,1.18s.33.88.85.8c1.8-.26,3.58.15,5.38.11,17.54-.43,35.09-.07,52.64-.34,3.81-.06,16.24.24,20-.15.48,0,1,.23,1.5-.23a1.9,1.9,0,0,0-.31-.23A1,1,0,0,0,80.36,40.12Z"/><path class="cls-1" d="M44.52,1.37c2.51.18,5,0,7.55.1a1.12,1.12,0,0,0,1.1-.37A10.67,10.67,0,0,0,51.31.81C49.13.89,47,.67,44.78.58s-4.36.09-6.54.15c-.21,0-.44.06-.38.47.42,0,.85.07,1.29.07C40.94,1.3,42.73,1.24,44.52,1.37Z"/><path class="cls-1" d="M76.93,37.35c-.7-.14-1.42.46-1.2,1.06.12.31.2.11.28.45a.94.94,0,0,0,1,.61h0a.89.89,0,0,0,1-.7c0-.3,0-.05.18-.33.37-.66.07-.95-.86-1A1.86,1.86,0,0,1,76.93,37.35Zm-.15.5.06-.09s.09,0,.1,0,0,.06,0,.1Z"/><path class="cls-1" d="M3.15,39.16a.49.49,0,0,0,.69-.29c.22-.49.41-1,.68-1.64a1.62,1.62,0,0,0-2.13-.31A1,1,0,0,0,2,38.22,4.31,4.31,0,0,0,3.15,39.16Z"/><path class="cls-1" d="M4.64,3.61c-.46.49-.77-.14-1.26-.14A1.82,1.82,0,0,0,2.9,4.62c.06.34.12.68.17,1a.76.76,0,0,0,.3.23,1,1,0,0,0,1.19-.3A2.1,2.1,0,0,0,5,3.86C5,3.75,4.65,3.6,4.64,3.61Z"/><path class="cls-1" d="M77.39,4.55l-.92.3L76,3.74a7.54,7.54,0,0,0-.39,1.43c0,.78.26,1.11,1,1.25.42.07.91.29,1.23-.16S78,5.41,77.77,5A2.17,2.17,0,0,0,77.39,4.55Z"/><path class="cls-1" d="M63.44,1.31C62.15.78,62,.77,61.13,1.25,62.65,1.59,62.65,1.59,63.44,1.31Z"/><path class="cls-1" d="M57.53,1.38l1.25.12C58.35.82,58.22.8,57.53,1.38Z"/><path class="cls-1" d="M54.65,1.23l.3,0s-.06-.11-.1-.12l-.29,0S54.61,1.22,54.65,1.23Z"/><path class="cls-1" d="M2.58,1.44c.41,0,.73-.09,1-.09,1.35,0,2.7.07,4,.07,3.54,0,7.08,0,10.61,0,2.58,0,5.16,0,7.74,0,.9,0,1.79.06,2.69.1a51.77,51.77,0,0,0,7-.38A4.09,4.09,0,0,0,34,.75c-1.41,0-2.8.08-4.21,0C28.86.66,28,.86,27.06.85c-1.73,0-3.47-.1-5.2-.15-.34,0-.68,0-1,0-1.24,0-2.46-.07-3.7-.16C15.08.41,13,.38,10.93.36c-2.25,0-4.5,0-6.74.07C3.83.43,3.47.39,3,.37A4,4,0,0,1,2.16.8a4.19,4.19,0,0,1,.39.83Z"/></svg>