<svg id="hand" xmlns="http://www.w3.org/2000/svg" viewBox="0 0 114.79 52.68"><defs><style>.cls-1{fill:#f3e7d7;}.cls-2{fill:#414142;}</style></defs><title>cat-hand</title><path class="cls-1" d="M114.16,5.34a3.92,3.92,0,0,0-.15-.66c-.76-2.23-3.65-3.15-5.71-3.6a20.76,20.76,0,0,0-2.07-.34c-4.16-.46-8.06.72-12.15,1.13C83.9,2.9,73.72,3.55,63.6,5.3Q53.1,7.1,42.79,9.9c-5.55,1.5-10.95,3.52-16.54,4.91-6,1.48-12.61,3.27-18.79,2.94a3.22,3.22,0,0,0-1.16.06c-1,.32-6.3,0-6.14.82,2.11,10.29,13.16,20.73,17.3,30.25.32.69.65,1.37,1,2.06.5-.73,4.67-3,5.16-3.21,1.84-.94,3.76-1.66,5.65-2.48,2.63-1.15,5.29-2.21,7.93-3.35C44.71,38.64,52.58,35.54,60,31.8c6-3,14.18-10.82,20.54-4.25a26.27,26.27,0,0,0,3.07,3.25c2.14,1.53,5,.75,5.47-1.91.27-1.43.33-2.76,1.24-4,1.24-1.65,3.31-2.43,4.48-4.12,1.68-2.44.11-5.54,1.64-7.94a3.67,3.67,0,0,1,4-1.55c1.8.33,3.28,1,5.22.88a11.32,11.32,0,0,0,5.57-1.9C112.75,9.26,114.38,7.3,114.16,5.34Z"/><path class="cls-2" d="M114.66,4.87c-.49-2.51-2.68-3.35-4.74-4.11A16.9,16.9,0,0,0,104.85,0C88.07-.32,71.46,2.65,55.18,6.43c-7.71,1.79-15.36,3.77-23,5.69-7.42,1.85-14.89,4.49-22.67,4a28.47,28.47,0,0,1-3.05-.35,26,26,0,0,1-3-.68c-.5-.14-1-.3-1.49-.47l-.74-.27c-.15-.07-.31-.12-.46-.2l-.09,0c-.14,0-.14.2-.16.29s-.08.29-.11.44-.11.48-.16.73v0A7,7,0,0,0,0,17.87a2.67,2.67,0,0,0,.21,1.06c.19.24.75.33,1.05.43a30.69,30.69,0,0,0,4.21,1c8.28,1.37,15.72-.3,23.65-2.53s16-4.51,24.1-6.57a255.21,255.21,0,0,1,37.17-7.1c3.27-.34,6.55-.63,9.84-.75,1.67-.06,3.35-.08,5,0a7.22,7.22,0,0,1,3.94.8c1.25.84,1.9,2.63.58,3.75-2.29,1.93-7.75,1.72-10.54,1.68a38.75,38.75,0,0,1-5.88-.56c-.67-.12-5.73-.84-5.85-1.44.43,2.12,1.78,3.64,3.12,5.25s2.62,3.4,2.58,5.5-2.36,3.85-4.08,2.74c-2.11-1.37-1.73-5.4-4.46-5.71-.73-.08-1.1.55-1.75.83-3.5,1.52-6.59.27-7.94-3.35-1.27,1.39-.77,3.11.08,4.65.5.89,1.46,1.92,1.12,3-.4,1.26-2,1.56-3,1.9a77.41,77.41,0,0,0-10.52,5c-6.21,3.23-12.55,5.66-19,8.64-3.76,1.74-7.66,3.54-11.54,5.59-2,1-9,4.15-15,6.62.67,1.47,1.41,2.9,2,4.38,6.09-2.82,11.59-5.38,13-6,10-4.48,20-9,29.65-14.19a72.06,72.06,0,0,0,8.63-5.09C72.72,25.75,75.07,25,77.3,27c1.93,1.74,2.69,4.5,5.12,5.76A5.64,5.64,0,0,0,89,32.06c1.87-1.7,2.06-4.18,1.2-6.48A8.25,8.25,0,0,0,96,14.23c3.84-1.51,7.8-.92,11.82-1.66S115.53,9.32,114.66,4.87ZM79.9,21.81c1.6-.89,2.89-1.3,4.58-.42-.12,1.46-1.41,2-1.91,3.35Zm5.21,9.09a4.37,4.37,0,0,1-1.2-.41c.25-.14.63-.49.91-.48s.39.28.5.47S85.23,30.91,85.11,30.9Zm-2.43-3a1.64,1.64,0,0,1-1-1.36,1.34,1.34,0,0,1,.78-1.23,14.58,14.58,0,0,1,3.3-.37C85.52,26.86,84.83,28.71,82.68,27.93Z"/></svg>