<?xml version="1.0" encoding="utf-8"?>
<svg version="1.1" id="tail" xmlns="http://www.w3.org/2000/svg" xmlns:xlink="http://www.w3.org/1999/xlink" x="0px" y="0px"
	 viewBox="0 0 105.48 207.31" style="enable-background:new 0 0 105.48 207.31;" xml:space="preserve">
<style type="text/css">
	.st0{fill:#F3E7D7;}
	.st1{fill:#414142;}
</style>
<g>
	<path class="st0" d="M52.89,197.41c4.82,1.83,9.93,3.04,14.84,4.08c6.11,1.3,12.24,2.54,18.4,3.54c5.33,0.87,12.28,2.84,17.66,2.12
		c1.67-0.22,1.93-1.37,1.51-2.74c-1.55-5.07-6.2-8.51-10.79-11.15c-7.72-4.45-16.08-7.73-23.8-12.17
		c-7.73-4.44-15.02-10.31-18.94-18.31c-3.46-7.05-4.04-15.18-6.91-22.49c-2.52-6.42-6.85-12.36-7.29-19.25
		c-0.5-7.92,4.22-15.13,6.17-22.82c1.87-7.42,0.89-15.04-2.42-21.94c-2.65-5.54-6.6-10.67-9.97-15.8s-6.08-11.14-5.32-17.24
		c0.72-5.73,4.36-10.59,7.76-15.25c3.41-4.66,6.84-9.75,7.03-15.52c0.12-3.56-1.51-7.32-4.28-9.58c-1.19-0.97-3.06-2.06-4.66-1.92
		c-1.81,0.16-3.36,2.08-4.71,3.26c-6.95,6.08-12.95,13.24-17.72,21.14c-5.67,9.38-9.56,21.29-4.75,31.14
		c4.69,9.6,16.2,14.22,21.52,23.49c3.74,6.52,3.82,15,0.19,21.58c-1.52,2.76-3.63,5.19-4.97,8.04c-4.45,9.45,1.19,20.5,3.71,30.64
		c2.15,8.66,1.77,17.5,3.46,26.26c1.7,8.76,5.11,16.45,11.78,22.37C44.06,192.16,48.28,195.66,52.89,197.41z"/>
	<g>
		<path class="st1" d="M25.35,107.81c1.86-3.74,3.52-7.4,4.56-11.44c0.65-2.53,0.51-5.2,0.56-7.81c0.08-4.28-1.32-7.8-4.08-10.99
			c-3.6-4.17-7.45-7.83-11.18-11.87c-3.08-3.34-6.48-6.13-8.23-10.58c-2.33-5.93-2.14-12.83,0.1-18.79
			c1.88-5.01,4.17-9.54,6.93-14.11c3.9-6.47,8.64-12.32,14.9-16.81c3.23-2.32,6.56-1.97,8.54,1.79c1.68,3.2,1.42,6.77,0.35,10.1
			c-1.15,3.58-3.39,6.35-5.8,9.11c-2.67,3.06-5.9,5.46-7.86,9.11c-3.71,6.92-2.42,15.1,1.51,21.68
			c4.26,7.12,11.02,12.27,15.66,19.09c0.03-4.31-1.29-8.07-3.46-11.71c-2.17-3.64-4.9-6.65-7.21-10.16
			c-1.39-2.11-2.75-4.14-3.14-6.72c-0.8-5.31,1.91-9.9,5.13-13.92c3.22-4.02,7.08-7.5,8.99-12.39c1.82-4.67,1.49-9.62,0.12-14.36
			c-0.52-1.78-1.21-3.52-2.67-4.73C34.25-1.7,29.3,0.06,24.82,3.52c-4.78,3.69-8.66,8.3-12.22,13.01
			c-3.69,4.87-7.18,9.58-9.49,15.24c-1.38,3.39-2.68,6.69-2.93,10.4c-0.24,3.55-0.38,7.1,0.49,10.63c1.13,4.58,3.24,8.45,6.75,11.7
			c5.48,5.07,11.21,9.97,16.59,15.18c2.99,2.9,3.84,6.41,3.67,10.47c-0.11,2.57-0.99,4.91-1.83,7.34c-0.58,1.68-1.63,3.07-2.53,4.67
			c-4.59,8.21-9.1,16.54-3.26,25.46c0.37,0.57,0.92,0.95,1.37,1.49c0.15-0.43,0.48,0.25,0.58-0.48c0.1-0.73-0.7-4.33-0.73-4.99
			c-0.12-2.19,0.14-3.56,0.5-5.35C22.52,114.55,23.68,111.17,25.35,107.81z"/>
		<path class="st1" d="M34.69,177.13c-0.79-1.73-1.5-3.5-2.15-5.3c-0.27-0.73-2.3-7.18-3.13-10.13c-0.22-0.81-1.05-1.29-1.86-1.09h0
			c-0.83,0.21-1.34,1.05-1.13,1.89c2.12,8.29,4.77,16.25,9.39,23.55c0.61,0.96,2.23,2.45,3.46,1.79c1.71-0.92-0.42-3.24-1.07-4.25
			C36.86,181.52,35.71,179.36,34.69,177.13z"/>
		<path class="st1" d="M70.4,180.69c-1.03-0.68-2.27-1.73-2.66-2.01c-1.48-1.06-2.91-2.2-4.26-3.42c-2.55-2.29-4.69-4.8-6.65-7.59
			c-2.51-3.57-4.58-7.45-6.16-11.52c-3.24-8.35-2.98-15.11-7.41-23.04c-3.74-6.69-6.71-13.35-1.31-22.12
			c2.49-4.04,4.1-7.8,4.74-12.48c0.77-5.69,0.13-11.12-1.55-16.66c-0.28-0.94-1.22-1.8-2.27-2.01c-0.15,0.38-0.41,0.9-0.4,1.3
			c0.05,1.79,0.16,3.6,0.42,5.33c0.87,5.97-0.81,11.48-2.57,17.09c-1.4,4.5-3.69,8.84-4.63,13.47c-0.77,3.8,0.17,7.15,1.69,10.62
			c2.14,4.86,5.2,9.3,6.62,14.46c2.46,8.9,2.96,18.08,7.97,26.12c3.53,5.65,8.79,10.33,15.08,12.53c1.52,0.53,3.17,1.24,4.72,0.84
			C71.51,181.67,70.99,181.08,70.4,180.69z"/>
	</g>
</g>
</svg>
