<svg id="Layer_1" data-name="Layer 1" xmlns="http://www.w3.org/2000/svg" viewBox="0 0 662.02 124.41" preserveAspectRatio="none"><defs><style>.cls-1{fill:#a33948;}</style></defs><title>nav-top</title><path class="cls-1" d="M661.88,104.88a2.77,2.77,0,0,0-.57-.13,1.55,1.55,0,0,1-1.65-1.35c0-.16,0-.37,0-.49a1.65,1.65,0,0,0-.59-.68,3,3,0,0,1-1.53-3.93c.09-.25.19-.67.07-.81a6.47,6.47,0,0,0-1.23-1.11,8.78,8.78,0,0,0-1-.59,13,13,0,0,0-1.33-.71c-.53-.23-1.08-.41-1.61-.63-1.1-.47-2.1-1.35-3.42-.71-.09,0-.29,0-.33,0-.33-.56-1-.82-1.15-1.57,0-.37-.08-.73-.12-1.13l-2.57-.34c0-.64,0-1.13,0-1.59l1.55-.72c.1-.64-.05-1.19-.67-1.38a4.06,4.06,0,0,1-1.62-1.08,1.79,1.79,0,0,0-.89-.54,9.47,9.47,0,0,1-2.1-.58,2.13,2.13,0,0,1-1.25-1.32,1.28,1.28,0,0,0-1-.91,3,3,0,0,1-1-.67,1.07,1.07,0,0,1-.27-1.35c.1-.23.57-.32.89-.4s.91-.12,1.36-.21a8.56,8.56,0,0,1,1.09-.25c1.74-.09,3.52-.14,5.23-.23A55.37,55.37,0,0,1,652,79a1.59,1.59,0,0,0,1.78-.79c-.09-.36-.18-.75-.28-1.17l-1.26-.43-1.55-2.3c0-.91.87-.92,1.37-1.39a2.24,2.24,0,0,0-1.75-.85A5.36,5.36,0,0,1,649,72c-.39-.06-.64-.29-.44-.83A1.77,1.77,0,0,1,649,71a1.78,1.78,0,0,0,1.85-1.57,1.89,1.89,0,0,1,.55-.79,8.19,8.19,0,0,1,1-.89,6.27,6.27,0,0,1,1.17-.78c.9-.4,1-.69.42-1.56A11.12,11.12,0,0,1,653,64a1,1,0,0,1,.59-1.65,5.67,5.67,0,0,1,1.11-.34,1.41,1.41,0,0,0,1.11-.72c-.11-.66-.56-.62-1-.76a12.06,12.06,0,0,1-2.22-.95,1.84,1.84,0,0,1-.95-2.28,1.58,1.58,0,0,0-.3-1.49,2.79,2.79,0,0,0-1.08-1,.94.94,0,0,1-.46-.73,1,1,0,0,1,.62-.63c1.32-.39,2.65-.72,4-1.1-.84.24-.6-4.71-.87-5.09-2.48-3.41-9.86-3.87-13.94-4.17a15.54,15.54,0,0,0,8-4.66c-1.5-2.27-7.51-17.58-1.33-17.92a41.64,41.64,0,0,0-4.72-2.81l0-6a5.74,5.74,0,0,0-1.54.33,5.4,5.4,0,0,1-1.44.22c-2.92,0-5.84.07-8.75.06-1.7,0-2-.34-1.92-2.2a3.64,3.64,0,0,0-1.63-3.49,2.69,2.69,0,0,1-1.26-1.83,1.61,1.61,0,0,0-1.43-1.38L623,3.31v0h-.24c-1.76-.18-3.52-.42-5.27-.44-4.4,0-332.94-1.86-444.9-2.6C138.23,0,103.88-.33,69.53.72L66.25.87c-.34,0-.67.16-1,.21-1.57.25-3.15-.05-4.71.35a4.71,4.71,0,0,1-1.11.15,16.09,16.09,0,0,0-5.8.61c-.21.08-.49.08-.63.24a4.66,4.66,0,0,1-2.23,1.34,4.65,4.65,0,0,0,.93.45A1.11,1.11,0,0,1,52.24,6a4.5,4.5,0,0,1-.82.87c-.31.27-.48.49-.27.94a1.37,1.37,0,0,1-.64,2c-.8.43-1.61.84-2.43,1.21a1.7,1.7,0,0,1-.8.15c-1.29-.12-1.64.25-1.41,1.67,1.54.69,3.24.36,4.87.48a7.68,7.68,0,0,1,2.6.75c-.39,1.22-.39,1.22-1.29,1.32s-1.87.19-2.79.33a1.25,1.25,0,0,0-1.15.71,1.53,1.53,0,0,1-1.51,1,4.66,4.66,0,0,0-2.46.77c-.36.21-.71.46-1.15.73a9.5,9.5,0,0,0,.82.68c.3.2.63.34.59.81s-.45.78-.87.94c-.72.27-1.46.53-2.19.79a41.25,41.25,0,0,0,4.43.15,6.58,6.58,0,0,1,2.53.19,8.51,8.51,0,0,0,2.58.85,1.73,1.73,0,0,1,.44.14c.76.31.87.65.55,1.44a1.3,1.3,0,0,1-1.13.82c-.81.11-1.63.12-2.44.24-1.44.21-2.86.52-4.3.67-1.6.17-3.13.85-4.78.73-1.27-.1-1.33,0-1.72,1.22a2.76,2.76,0,0,1-3,2.19,6.84,6.84,0,0,0-1.62.2c-1.72.41-3.45.88-5.18,1.27a2.21,2.21,0,0,0-1.84,2.07,1.89,1.89,0,0,1-.74,1.52,3.3,3.3,0,0,0-1,1.53,3.08,3.08,0,0,1-.85,1.32,2.53,2.53,0,0,0-1.15,3A2.08,2.08,0,0,1,22,43a8.15,8.15,0,0,1-1.27,1.82c-.43.51-1,1-1.44,1.44,1.58,1.32,1.58,1.32,1.12,2.83a2.55,2.55,0,0,0,.21.28c1,1.09.88,1.67-.48,2.32a1.56,1.56,0,0,0-.64.55c-.33.55-.62,1.14-.91,1.72a.79.79,0,0,0,.3,1,3.46,3.46,0,0,1,.93.55,1,1,0,0,1,.37,1.1,1.09,1.09,0,0,1-.89.77,6.47,6.47,0,0,1-1.08,0,1.62,1.62,0,0,0-1.69.94c.27.9.51,1.16,1.17,1.12,1.53-.11,3.06-.2,4.57-.43a5.59,5.59,0,0,1,2.73.41.82.82,0,0,1,.15,1.41c-.32.26-.68.46-1.1.75.16.34.26.57.38.78a1.48,1.48,0,0,1-.51,2.12,2.28,2.28,0,0,1-.79.29,2,2,0,0,0-1.88,1.7,1.12,1.12,0,0,1-1,.92c-.56.06-1.11.17-1.67.26a3.26,3.26,0,0,0-.94.17c-1.21.6-2.68.71-3.58,1.94-.14.19-.42.26-.63.38-.86.49-.88.7-.85,1.69,0,1.38.51,2.75,0,4.13a.84.84,0,0,0,.18.68,1,1,0,0,1-.1,1.55,1,1,0,0,0-.18,1.26,1.42,1.42,0,0,1-.49,1.75c-.2.14-.44.22-.65.35-.67.42-.73.81-.19,1.4.28.31.69.54.86.9.49,1,1.21.88,2.09.75,1.4-.2,2.81.17,4.23-.08.88-.15,1.81,0,2.69-.15A30.09,30.09,0,0,1,27.31,84a19.78,19.78,0,0,0,2.31.17,24,24,0,0,0,2.54-.27c1.21-.16,2.43,0,3.65-.2a3.66,3.66,0,0,1,2.73.45,1.43,1.43,0,0,1,.62.85c.07.41-.21.71-.65.93a5.75,5.75,0,0,1-2.31.77c-1.71.13-3.42.21-5.12.35C19.56,88,4.1,86.76,0,100.51l16.33.14h0c-.12,14.21,11.36,24.3,25.55,23.74,136-5.34,576.69-14.63,577.52-14.63,4.85,0,9.82.47,14.68.23,2.72-.14,5.5,0,8.23,0a17.26,17.26,0,0,0,2.16,0,52.09,52.09,0,0,1,7.21-.23,25.11,25.11,0,0,0,7.62-.67c.23-.72.85-1.36.55-2.36-.15-.47.29-.94.87-1a1.6,1.6,0,0,0,1.3-.6C662,105,661.93,104.9,661.88,104.88Z"/></svg>