<svg width="500" height="62" viewBox="0 0 500 62" fill="none" xmlns="http://www.w3.org/2000/svg">
<path d="M342.813 53.8175L342.797 61.1408H349.992L369.395 8.22487V0.945129H362.2L342.813 53.8175Z" fill="#212015"/>
<path d="M386.799 42.3633L384.021 34.788H374.156H369.65V34.7885L366.851 42.3633H376.934L383.819 61.1396H391.014L390.998 53.8163L386.799 42.3633Z" fill="#212015"/>
<path d="M24.5298 28.1643L15.6158 24.9316C13.1969 24.0355 11.3983 22.9189 10.213 21.5747C9.0311 20.2375 8.43848 18.4385 8.43848 16.1707C8.43848 13.648 9.32053 11.5732 11.0813 9.9395C12.842 8.31281 15.1161 7.49256 17.9038 7.49256C20.9531 7.49256 23.3858 8.40241 25.1982 10.2153C27.0141 12.035 27.9203 14.3579 27.9203 17.1978V18.1421H36.2002V17.1978C36.2002 13.834 35.4388 10.8494 33.9157 8.24392C32.3893 5.6384 30.2461 3.61873 27.4861 2.17123C24.7262 0.723732 21.532 0 17.9037 0C14.4339 0 11.3432 0.709953 8.63487 2.12994C5.92656 3.54985 3.81089 5.52121 2.28793 8.05093C0.761522 10.5737 0 13.4412 0 16.6463C0 20.2237 0.971711 23.4083 2.9185 26.193C4.86183 28.9777 8.09733 31.1903 12.618 32.817L20.5845 35.5811C23.1618 36.5806 25.0673 37.8144 26.3043 39.2895C27.5378 40.7577 28.158 42.7084 28.158 45.1278C28.158 46.8579 27.7342 48.4364 26.8935 49.8563C26.0527 51.2762 24.8846 52.3998 23.3858 53.2131C21.8869 54.0265 20.2157 54.4331 18.3758 54.4331C15.3815 54.4331 12.935 53.5302 11.0434 51.7104C9.14827 49.8976 8.20415 47.5196 8.20415 44.5763V43.6251H1.25546e-05V44.4178C1.25546e-05 47.8367 0.761535 50.8695 2.28794 53.5302C3.8109 56.1839 5.98167 58.2449 8.79334 59.72C11.605 61.1951 14.7991 61.9257 18.3758 61.9257C21.9524 61.9257 25.1189 61.202 27.8823 59.7614C30.6424 58.3139 32.7821 56.2735 34.3086 53.6474C35.835 51.0143 36.5965 47.9952 36.5965 44.5763C36.5965 40.8404 35.6627 37.5662 33.7952 34.754C31.931 31.9417 28.8403 29.7428 24.5298 28.1643Z" fill="#212015"/>
<path d="M84.2759 3.27496C81.4642 1.72406 78.215 0.945129 74.535 0.945129H56.7898V61.1408H65.0697V37.7876H74.3006C78.0324 37.7876 81.3299 37.0294 84.1966 35.4991C87.0635 33.9759 89.2859 31.8184 90.8606 29.0337C92.4387 26.2489 93.2277 23.0368 93.2277 19.4112C93.2277 15.8338 92.4387 12.6355 90.8606 9.8232C89.2859 7.0109 87.0875 4.82586 84.2759 3.27496ZM81.6331 27.3794C79.6346 29.3232 76.9263 30.295 73.5116 30.295H65.0697V8.44461H73.5116C76.9263 8.44461 79.6346 9.43024 81.6331 11.4016C83.6316 13.373 84.6308 16.0406 84.6308 19.4112C84.6308 22.7749 83.6316 25.4286 81.6331 27.3794Z" fill="#212015"/>
<path d="M113.651 0.945129V61.1408H121.931H149.851V53.6482H121.931V34.7134H144.331V27.1381H121.931V8.44461H149.851V0.945129H121.931H113.651Z" fill="#212015"/>
<path d="M248.75 27.1381V27.2208H239.836V0.945129H231.556V61.1408H239.836V34.7892H248.999L263.025 61.1408H270.361V57.2738L255.69 30.7707L270.361 4.81206V0.945129H263.025L248.75 27.1381Z" fill="#212015"/>
<path d="M289.607 0.945129V61.1408H297.887H325.807V53.6482H297.887V34.7134H320.287V27.1381H297.887V8.44461H325.807V0.945129H297.887H289.607Z" fill="#212015"/>
<path d="M429.883 28.1643L420.969 24.9316C418.55 24.0355 416.751 22.9189 415.566 21.5747C414.384 20.2375 413.791 18.4385 413.791 16.1707C413.791 13.648 414.674 11.5732 416.434 9.9395C418.195 8.31281 420.469 7.49256 423.257 7.49256C426.306 7.49256 428.739 8.40241 430.551 10.2153C432.367 12.035 433.273 14.3579 433.273 17.1978V18.1421H441.553V17.1978C441.553 13.834 440.792 10.8494 439.269 8.24392C437.742 5.6384 435.599 3.61873 432.839 2.17123C430.079 0.723732 426.885 0 423.257 0C419.787 0 416.696 0.709953 413.988 2.12994C411.28 3.54985 409.164 5.52121 407.641 8.05093C406.115 10.5737 405.353 13.4412 405.353 16.6463C405.353 20.2237 406.325 23.4083 408.271 26.193C410.215 28.9777 413.45 31.1903 417.971 32.817L425.937 35.5811C428.515 36.5806 430.42 37.8144 431.657 39.2895C432.891 40.7577 433.511 42.7084 433.511 45.1278C433.511 46.8579 433.087 48.4364 432.246 49.8563C431.406 51.2762 430.238 52.3998 428.739 53.2131C427.24 54.0265 425.569 54.4331 423.729 54.4331C420.734 54.4331 418.288 53.5302 416.396 51.7104C414.501 49.8976 413.557 47.5196 413.557 44.5763V43.6251H405.353V44.4178C405.353 47.8367 406.115 50.8695 407.641 53.5302C409.164 56.1839 411.335 58.2449 414.146 59.72C416.958 61.1951 420.152 61.9257 423.729 61.9257C427.305 61.9257 430.472 61.202 433.235 59.7614C435.995 58.3139 438.135 56.2735 439.662 53.6474C441.188 51.0143 441.949 47.9952 441.949 44.5763C441.949 40.8404 441.016 37.5662 439.148 34.754C437.284 31.9417 434.193 29.7428 429.883 28.1643Z" fill="#212015"/>
<path d="M492.588 0.945129L480.994 25.9594H479.621L468.059 0.945129H460.644V4.65348L476.18 36.8433V61.1408H484.543V36.609L500 4.73626V0.945129H492.588Z" fill="#212015"/>
<path d="M166.56 53.8175L166.544 61.1408H173.74L193.143 8.22487V0.945129H185.948L166.56 53.8175Z" fill="#212015"/>
<path d="M210.549 42.3633L207.771 34.788H197.907H193.401V34.7885L190.602 42.3633H200.684L207.569 61.1396H214.765L214.749 53.8163L210.549 42.3633Z" fill="#212015"/>
</svg>
