<svg class="plot-d6a7b5" fill="currentColor" font-family="system-ui, sans-serif" font-size="10" text-anchor="middle" width="640" height="200" viewBox="0 0 640 200" style="color: black; --plot-background: white;" xmlns="http://www.w3.org/2000/svg" xmlns:xlink="http://www.w3.org/1999/xlink"><style>:where(.plot-d6a7b5) {
  --plot-background: white;
  display: block;
  height: auto;
  height: intrinsic;
  max-width: 100%;
}
:where(.plot-d6a7b5 text),
:where(.plot-d6a7b5 tspan) {
  white-space: pre;
}</style><g aria-label="y-grid" aria-hidden="true" stroke="currentColor" stroke-opacity="0.1"><line x1="20" x2="600" y1="170" y2="170"></line><line x1="20" x2="600" y1="141" y2="141"></line><line x1="20" x2="600" y1="113" y2="113"></line><line x1="20" x2="600" y1="84" y2="84"></line><line x1="20" x2="600" y1="56" y2="56"></line><line x1="20" x2="600" y1="27" y2="27"></line></g><g aria-label="x-axis tick" aria-hidden="true" fill="none" stroke="currentColor"><path transform="translate(66,170)" d="M0,0L0,6"></path><path transform="translate(115,170)" d="M0,0L0,6"></path><path transform="translate(164,170)" d="M0,0L0,6"></path><path transform="translate(212,170)" d="M0,0L0,6"></path><path transform="translate(260,170)" d="M0,0L0,6"></path><path transform="translate(309,170)" d="M0,0L0,6"></path><path transform="translate(358,170)" d="M0,0L0,6"></path><path transform="translate(405,170)" d="M0,0L0,6"></path><path transform="translate(454,170)" d="M0,0L0,6"></path><path transform="translate(502,170)" d="M0,0L0,6"></path><path transform="translate(551,170)" d="M0,0L0,6"></path><path transform="translate(599,170)" d="M0,0L0,6"></path></g><g aria-label="x-axis tick label" font-variant="tabular-nums" transform="translate(0,9)"><text transform="translate(66,170)"><tspan x="0" y="0.71em">Jul</tspan><tspan x="0" dy="1em">2023</tspan></text><text y="0.71em" transform="translate(115,170)">Oct</text><text transform="translate(164,170)"><tspan x="0" y="0.71em">Jan</tspan><tspan x="0" dy="1em">2024</tspan></text><text y="0.71em" transform="translate(212,170)">Apr</text><text y="0.71em" transform="translate(260,170)">Jul</text><text y="0.71em" transform="translate(309,170)">Oct</text><text transform="translate(358,170)"><tspan x="0" y="0.71em">Jan</tspan><tspan x="0" dy="1em">2025</tspan></text><text y="0.71em" transform="translate(405,170)">Apr</text><text y="0.71em" transform="translate(454,170)">Jul</text><text y="0.71em" transform="translate(502,170)">Oct</text><text transform="translate(551,170)"><tspan x="0" y="0.71em">Jan</tspan><tspan x="0" dy="1em">2026</tspan></text><text y="0.71em" transform="translate(599,170)">Apr</text></g><g aria-label="y-axis tick" aria-hidden="true" fill="none" stroke="currentColor"><path transform="translate(600,170)" d="M0,0L6,0"></path><path transform="translate(600,141)" d="M0,0L6,0"></path><path transform="translate(600,113)" d="M0,0L6,0"></path><path transform="translate(600,84)" d="M0,0L6,0"></path><path transform="translate(600,56)" d="M0,0L6,0"></path><path transform="translate(600,27)" d="M0,0L6,0"></path></g><g aria-label="y-axis tick label" text-anchor="start" font-variant="tabular-nums" transform="translate(9,0)"><text y="0.32em" transform="translate(600,170)">0k</text><text y="0.32em" transform="translate(600,141)">5k</text><text y="0.32em" transform="translate(600,113)">10k</text><text y="0.32em" transform="translate(600,84)">15k</text><text y="0.32em" transform="translate(600,56)">20k</text><text y="0.32em" transform="translate(600,27)">25k</text></g><g aria-label="area" fill="black" fill-opacity="0.2"><path d="M20,157L20.5,157L20.5,154L21,154L21,157L21.5,157L21.5,164L22,164L22,168L22.5,168L22.5,169L23,169L23,164L23.5,164L23.5,159L24,159L24,157L24.5,157L24.5,156L25,156L25,159L25.5,159L25.5,168L26,168L26,168L26.5,168L26.5,155L27,155L27,156L27.5,156L27.5,159L28,159L28,159L28.5,159L28.5,162L29.5,162L29.5,168L30,168L30,169L30.5,169L30.5,160L31,160L31,158L31.5,158L31.5,158L32,158L32,158L32.5,158L32.5,160L33,160L33,168L33.5,168L33.5,168L34,168L34,164L34.5,164L34.5,158L35,158L35,160L35.5,160L35.5,160L36,160L36,160L36.5,160L36.5,167L37,167L37,168L37.5,168L37.5,161L38.5,161L38.5,157L39,157L39,158L39.5,158L39.5,158L40,158L40,160L40.5,160L40.5,168L41,168L41,168L41.5,168L41.5,160L42,160L42,160L42.5,160L42.5,160L43,160L43,161L43.5,161L43.5,161L44,161L44,168L44.5,168L44.5,168L45,168L45,159L45.5,159L45.5,159L46,159L46,157L46.5,157L46.5,155L47.5,155L47.5,159L48,159L48,167L48.5,167L48.5,168L49,168L49,166L49.5,166L49.5,156L50,156L50,156L50.5,156L50.5,154L51,154L51,157L51.5,157L51.5,165L52,165L52,167L52.5,167L52.5,156L53,156L53,155L53.5,155L53.5,156L54,156L54,157L54.5,157L54.5,158L55,158L55,165L55.5,165L55.5,168L56.5,168L56.5,158L57,158L57,155L57.5,155L57.5,155L58,155L58,156L58.5,156L58.5,157L59,157L59,166L59.5,166L59.5,167L60,167L60,160L60.5,160L60.5,156L61,156L61,154L61.5,154L61.5,153L62,153L62,158L62.5,158L62.5,166L63,166L63,168L63.5,168L63.5,158L64,158L64,156L64.5,156L64.5,155L65.5,155L65.5,159L66,159L66,160L66.5,160L66.5,168L67,168L67,169L67.5,169L67.5,161L68,161L68,162L68.5,162L68.5,158L69,158L69,157L69.5,157L69.5,157L70,157L70,166L70.5,166L70.5,166L71,166L71,157L71.5,157L71.5,158L72,158L72,159L72.5,159L72.5,158L73,158L73,159L73.5,159L73.5,167L74.5,167L74.5,168L75,168L75,159L75.5,159L75.5,157L76,157L76,157L76.5,157L76.5,154L77,154L77,158L77.5,158L77.5,166L78,166L78,168L78.5,168L78.5,159L79,159L79,158L79.5,158L79.5,158L80,158L80,156L80.5,156L80.5,159L81,159L81,166L81.5,166L81.5,168L82.5,168L82.5,158L83,158L83,157L83.5,157L83.5,158L84,158L84,157L84.5,157L84.5,158L85,158L85,167L85.5,167L85.5,168L86,168L86,157L86.5,157L86.5,155L87,155L87,156L87.5,156L87.5,157L88,157L88,156L88.5,156L88.5,165L89,165L89,168L89.5,168L89.5,155L90,155L90,151L90.5,151L90.5,153L91.5,153L91.5,153L92,153L92,155L92.5,155L92.5,166L93,166L93,164L93.5,164L93.5,153L94,153L94,153L94.5,153L94.5,154L95,154L95,153L95.5,153L95.5,156L96,156L96,166L96.5,166L96.5,167L97,167L97,153L97.5,153L97.5,151L98,151L98,146L98.5,146L98.5,145L99,145L99,149L99.5,149L99.5,166L100.5,166L100.5,167L101,167L101,157L101.5,157L101.5,148L102,148L102,150L102.5,150L102.5,144L103,144L103,148L103.5,148L103.5,165L104,165L104,167L104.5,167L104.5,146L105,146L105,149L105.5,149L105.5,147L106,147L106,147L106.5,147L106.5,146L107,146L107,164L107.5,164L107.5,168L108,168L108,149L108.5,149L108.5,144L109.5,144L109.5,142L110,142L110,138L110.5,138L110.5,147L111,147L111,165L111.5,165L111.5,166L112,166L112,147L112.5,147L112.5,143L113,143L113,145L113.5,145L113.5,148L114,148L114,147L114.5,147L114.5,164L115,164L115,165L115.5,165L115.5,147L116,147L116,144L116.5,144L116.5,143L117,143L117,142L117.5,142L117.5,142L118.5,142L118.5,165L119,165L119,166L119.5,166L119.5,157L120,157L120,151L120.5,151L120.5,148L121,148L121,147L121.5,147L121.5,144L122,144L122,159L122.5,159L122.5,164L123,164L123,148L123.5,148L123.5,146L124,146L124,146L124.5,146L124.5,144L125,144L125,146L125.5,146L125.5,164L126,164L126,166L126.5,166L126.5,148L127.5,148L127.5,144L128,144L128,145L128.5,145L128.5,148L129,148L129,145L129.5,145L129.5,165L130,165L130,165L130.5,165L130.5,148L131,148L131,145L131.5,145L131.5,142L132,142L132,163L132.5,163L132.5,170L133,170L133,163L133.5,163L133.5,166L134,166L134,146L134.5,146L134.5,145L135,145L135,144L135.5,144L135.5,146L136.5,146L136.5,143L137,143L137,161L137.5,161L137.5,162L138,162L138,143L138.5,143L138.5,142L139,142L139,142L139.5,142L139.5,139L140,139L140,144L140.5,144L140.5,161L141,161L141,166L141.5,166L141.5,149L142,149L142,150L142.5,150L142.5,146L143,146L143,155L143.5,155L143.5,159L144,159L144,165L144.5,165L144.5,165L145.5,165L145.5,147L146,147L146,146L146.5,146L146.5,142L147,142L147,144L147.5,144L147.5,148L148,148L148,161L148.5,161L148.5,166L149,166L149,145L149.5,145L149.5,142L150,142L150,142L150.5,142L150.5,137L151,137L151,141L151.5,141L151.5,161L152,161L152,164L152.5,164L152.5,143L153,143L153,138L153.5,138L153.5,139L154.5,139L154.5,140L155,140L155,141L155.5,141L155.5,163L156,163L156,165L156.5,165L156.5,147L157,147L157,145L157.5,145L157.5,145L158,145L158,143L158.5,143L158.5,147L159,147L159,166L159.5,166L159.5,166L160,166L160,165L160.5,165L160.5,157L161,157L161,148L161.5,148L161.5,143L162,143L162,154L162.5,154L162.5,162L163.5,162L163.5,162L164,162L164,161L164.5,161L164.5,151L165,151L165,142L165.5,142L165.5,145L166,145L166,144L166.5,144L166.5,164L167,164L167,166L167.5,166L167.5,147L168,147L168,141L168.5,141L168.5,140L169,140L169,139L169.5,139L169.5,143L170,143L170,161L170.5,161L170.5,165L171,165L171,154L171.5,154L171.5,145L172.5,145L172.5,139L173,139L173,144L173.5,144L173.5,138L174,138L174,160L174.5,160L174.5,164L175,164L175,143L175.5,143L175.5,142L176,142L176,139L176.5,139L176.5,140L177,140L177,146L177.5,146L177.5,160L178,160L178,165L178.5,165L178.5,148L179,148L179,145L179.5,145L179.5,142L180,142L180,141L180.5,141L180.5,143L181.5,143L181.5,160L182,160L182,164L182.5,164L182.5,139L183,139L183,137L183.5,137L183.5,135L184,135L184,134L184.5,134L184.5,136L185,136L185,161L185.5,161L185.5,162L186,162L186,138L186.5,138L186.5,138L187,138L187,140L187.5,140L187.5,135L188,135L188,139L188.5,139L188.5,163L189,163L189,165L189.5,165L189.5,153L190.5,153L190.5,142L191,142L191,142L191.5,142L191.5,142L192,142L192,145L192.5,145L192.5,164L193,164L193,164L193.5,164L193.5,145L194,145L194,140L194.5,140L194.5,143L195,143L195,136L195.5,136L195.5,138L196,138L196,164L196.5,164L196.5,160L197,160L197,140L197.5,140L197.5,136L198.5,136L198.5,136L199,136L199,139L199.5,139L199.5,144L200,144L200,161L200.5,161L200.5,164L201,164L201,142L201.5,142L201.5,140L202,140L202,130L202.5,130L202.5,135L203,135L203,143L203.5,143L203.5,162L204,162L204,165L204.5,165L204.5,143L205,143L205,138L205.5,138L205.5,140L206,140L206,141L206.5,141L206.5,141L207.5,141L207.5,160L208,160L208,165L208.5,165L208.5,146L209,146L209,152L209.5,152L209.5,142L210,142L210,142L210.5,142L210.5,146L211,146L211,164L211.5,164L211.5,163L212,163L212,148L212.5,148L212.5,139L213,139L213,135L213.5,135L213.5,138L214,138L214,143L214.5,143L214.5,164L215,164L215,162L215.5,162L215.5,139L216.5,139L216.5,139L217,139L217,139L217.5,139L217.5,142L218,142L218,143L218.5,143L218.5,162L219,162L219,164L219.5,164L219.5,140L220,140L220,139L220.5,139L220.5,141L221,141L221,140L221.5,140L221.5,141L222,141L222,165L222.5,165L222.5,165L223,165L223,139L223.5,139L223.5,137L224,137L224,138L224.5,138L224.5,140L225.5,140L225.5,137L226,137L226,158L226.5,158L226.5,160L227,160L227,134L227.5,134L227.5,133L228,133L228,139L228.5,139L228.5,125L229,125L229,130L229.5,130L229.5,161L230,161L230,165L230.5,165L230.5,135L231,135L231,131L231.5,131L231.5,134L232,134L232,137L232.5,137L232.5,141L233,141L233,163L233.5,163L233.5,165L234.5,165L234.5,134L235,134L235,139L235.5,139L235.5,138L236,138L236,134L236.5,134L236.5,143L237,143L237,161L237.5,161L237.5,164L238,164L238,143L238.5,143L238.5,135L239,135L239,133L239.5,133L239.5,134L240,134L240,137L240.5,137L240.5,162L241,162L241,165L241.5,165L241.5,150L242,150L242,139L242.5,139L242.5,135L243.5,135L243.5,136L244,136L244,137L244.5,137L244.5,160L245,160L245,163L245.5,163L245.5,136L246,136L246,113L246.5,113L246.5,136L247,136L247,131L247.5,131L247.5,137L248,137L248,162L248.5,162L248.5,166L249,166L249,142L249.5,142L249.5,132L250,132L250,132L250.5,132L250.5,138L251,138L251,139L251.5,139L251.5,162L252.5,162L252.5,164L253,164L253,136L253.5,136L253.5,133L254,133L254,144L254.5,144L254.5,141L255,141L255,140L255.5,140L255.5,162L256,162L256,162L256.5,162L256.5,135L257,135L257,138L257.5,138L257.5,135L258,135L258,137L258.5,137L258.5,136L259,136L259,162L259.5,162L259.5,164L260,164L260,136L260.5,136L260.5,139L261.5,139L261.5,143L262,143L262,151L262.5,151L262.5,149L263,149L263,158L263.5,158L263.5,164L264,164L264,128L264.5,128L264.5,124L265,124L265,128L265.5,128L265.5,136L266,136L266,134L266.5,134L266.5,159L267,159L267,165L267.5,165L267.5,133L268,133L268,129L268.5,129L268.5,134L269,134L269,128L269.5,128L269.5,125L270.5,125L270.5,160L271,160L271,163L271.5,163L271.5,130L272,130L272,123L272.5,123L272.5,127L273,127L273,131L273.5,131L273.5,129L274,129L274,158L274.5,158L274.5,161L275,161L275,128L275.5,128L275.5,126L276,126L276,129L276.5,129L276.5,118L277,118L277,127L277.5,127L277.5,157L278,157L278,163L278.5,163L278.5,124L279.5,124L279.5,115L280,115L280,118L280.5,118L280.5,125L281,125L281,135L281.5,135L281.5,157L282,157L282,161L282.5,161L282.5,128L283,128L283,124L283.5,124L283.5,130L284,130L284,132L284.5,132L284.5,126L285,126L285,156L285.5,156L285.5,159L286,159L286,131L286.5,131L286.5,130L287,130L287,129L287.5,129L287.5,133L288.5,133L288.5,137L289,137L289,163L289.5,163L289.5,161L290,161L290,136L290.5,136L290.5,123L291,123L291,125L291.5,125L291.5,130L292,130L292,130L292.5,130L292.5,156L293,156L293,159L293.5,159L293.5,147L294,147L294,119L294.5,119L294.5,127L295,127L295,130L295.5,130L295.5,132L296,132L296,159L296.5,159L296.5,162L297.5,162L297.5,125L298,125L298,124L298.5,124L298.5,125L299,125L299,123L299.5,123L299.5,127L300,127L300,160L300.5,160L300.5,157L301,157L301,129L301.5,129L301.5,124L302,124L302,126L302.5,126L302.5,131L303,131L303,133L303.5,133L303.5,158L304,158L304,161L304.5,161L304.5,133L305,133L305,124L305.5,124L305.5,125L306.5,125L306.5,128L307,128L307,136L307.5,136L307.5,159L308,159L308,162L308.5,162L308.5,127L309,127L309,120L309.5,120L309.5,129L310,129L310,124L310.5,124L310.5,121L311,121L311,157L311.5,157L311.5,156L312,156L312,124L312.5,124L312.5,124L313,124L313,121L313.5,121L313.5,119L314.5,119L314.5,126L315,126L315,157L315.5,157L315.5,159L316,159L316,139L316.5,139L316.5,122L317,122L317,115L317.5,115L317.5,118L318,118L318,123L318.5,123L318.5,157L319,157L319,157L319.5,157L319.5,124L320,124L320,120L320.5,120L320.5,121L321,121L321,109L321.5,109L321.5,115L322,115L322,152L322.5,152L322.5,155L323.5,155L323.5,120L324,120L324,112L324.5,112L324.5,114L325,114L325,114L325.5,114L325.5,117L326,117L326,157L326.5,157L326.5,155L327,155L327,110L327.5,110L327.5,108L328,108L328,116L328.5,116L328.5,114L329,114L329,118L329.5,118L329.5,153L330,153L330,151L330.5,151L330.5,122L331,122L331,105L331.5,105L331.5,105L332.5,105L332.5,114L333,114L333,116L333.5,116L333.5,158L334,158L334,160L334.5,160L334.5,120L335,120L335,104L335.5,104L335.5,111L336,111L336,109L336.5,109L336.5,119L337,119L337,156L337.5,156L337.5,162L338,162L338,115L338.5,115L338.5,112L339,112L339,120L339.5,120L339.5,141L340,141L340,144L340.5,144L340.5,162L341.5,162L341.5,157L342,157L342,109L342.5,109L342.5,107L343,107L343,112L343.5,112L343.5,108L344,108L344,115L344.5,115L344.5,154L345,154L345,162L345.5,162L345.5,112L346,112L346,99L346.5,99L346.5,106L347,106L347,106L347.5,106L347.5,113L348,113L348,155L348.5,155L348.5,160L349,160L349,113L349.5,113L349.5,106L350.5,106L350.5,113L351,113L351,106L351.5,106L351.5,112L352,112L352,148L352.5,148L352.5,159L353,159L353,126L353.5,126L353.5,121L354,121L354,156L354.5,156L354.5,133L355,133L355,123L355.5,123L355.5,155L356,155L356,156L356.5,156L356.5,126L357,126L357,125L357.5,125L357.5,141L358,141L358,124L358.5,124L358.5,110L359.5,110L359.5,152L360,152L360,159L360.5,159L360.5,115L361,115L361,99L361.5,99L361.5,106L362,106L362,111L362.5,111L362.5,112L363,112L363,158L363.5,158L363.5,162L364,162L364,116L364.5,116L364.5,108L365,108L365,110L365.5,110L365.5,105L366,105L366,112L366.5,112L366.5,157L367,157L367,161L367.5,161L367.5,136L368.5,136L368.5,111L369,111L369,102L369.5,102L369.5,99L370,99L370,102L370.5,102L370.5,155L371,155L371,161L371.5,161L371.5,113L372,113L372,98L372.5,98L372.5,102L373,102L373,108L373.5,108L373.5,104L374,104L374,147L374.5,147L374.5,157L375,157L375,104L375.5,104L375.5,95L376,95L376,99L376.5,99L376.5,101L377.5,101L377.5,103L378,103L378,153L378.5,153L378.5,158L379,158L379,106L379.5,106L379.5,94L380,94L380,99L380.5,99L380.5,95L381,95L381,101L381.5,101L381.5,151L382,151L382,158L382.5,158L382.5,132L383,132L383,105L383.5,105L383.5,92L384,92L384,96L384.5,96L384.5,105L385,105L385,154L385.5,154L385.5,155L386.5,155L386.5,102L387,102L387,91L387.5,91L387.5,98L388,98L388,102L388.5,102L388.5,109L389,109L389,154L389.5,154L389.5,150L390,150L390,87L390.5,87L390.5,96L391,96L391,101L391.5,101L391.5,99L392,99L392,106L392.5,106L392.5,158L393,158L393,160L393.5,160L393.5,98L394,98L394,92L394.5,92L394.5,103L395.5,103L395.5,103L396,103L396,105L396.5,105L396.5,152L397,152L397,159L397.5,159L397.5,105L398,105L398,93L398.5,93L398.5,97L399,97L399,99L399.5,99L399.5,102L400,102L400,157L400.5,157L400.5,157L401,157L401,99L401.5,99L401.5,91L402,91L402,94L402.5,94L402.5,94L403,94L403,100L403.5,100L403.5,154L404.5,154L404.5,152L405,152L405,98L405.5,98L405.5,89L406,89L406,95L406.5,95L406.5,97L407,97L407,108L407.5,108L407.5,152L408,152L408,158L408.5,158L408.5,111L409,111L409,92L409.5,92L409.5,104L410,104L410,103L410.5,103L410.5,100L411,100L411,155L411.5,155L411.5,157L412,157L412,102L412.5,102L412.5,97L413.5,97L413.5,92L414,92L414,103L414.5,103L414.5,117L415,117L415,159L415.5,159L415.5,159L416,159L416,118L416.5,118L416.5,97L417,97L417,104L417.5,104L417.5,101L418,101L418,106L418.5,106L418.5,156L419,156L419,161L419.5,161L419.5,113L420,113L420,101L420.5,101L420.5,113L421,113L421,125L421.5,125L421.5,113L422.5,113L422.5,155L423,155L423,161L423.5,161L423.5,121L424,121L424,104L424.5,104L424.5,97L425,97L425,110L425.5,110L425.5,108L426,108L426,157L426.5,157L426.5,163L427,163L427,105L427.5,105L427.5,91L428,91L428,97L428.5,97L428.5,98L429,98L429,103L429.5,103L429.5,159L430.5,159L430.5,159L431,159L431,108L431.5,108L431.5,101L432,101L432,94L432.5,94L432.5,99L433,99L433,106L433.5,106L433.5,154L434,154L434,152L434.5,152L434.5,139L435,139L435,90L435.5,90L435.5,96L436,96L436,104L436.5,104L436.5,99L437,99L437,156L437.5,156L437.5,156L438,156L438,111L438.5,111L438.5,93L439.5,93L439.5,89L440,89L440,90L440.5,90L440.5,98L441,98L441,150L441.5,150L441.5,150L442,150L442,105L442.5,105L442.5,97L443,97L443,85L443.5,85L443.5,104L444,104L444,95L444.5,95L444.5,145L445,145L445,154L445.5,154L445.5,100L446,100L446,96L446.5,96L446.5,97L447,97L447,131L447.5,131L447.5,109L448.5,109L448.5,152L449,152L449,157L449.5,157L449.5,104L450,104L450,81L450.5,81L450.5,82L451,82L451,88L451.5,88L451.5,90L452,90L452,157L452.5,157L452.5,158L453,158L453,96L453.5,96L453.5,82L454,82L454,84L454.5,84L454.5,90L455,90L455,135L455.5,135L455.5,156L456,156L456,158L456.5,158L456.5,87L457.5,87L457.5,74L458,74L458,83L458.5,83L458.5,95L459,95L459,91L459.5,91L459.5,149L460,149L460,157L460.5,157L460.5,100L461,100L461,79L461.5,79L461.5,77L462,77L462,83L462.5,83L462.5,90L463,90L463,148L463.5,148L463.5,154L464,154L464,98L464.5,98L464.5,82L465,82L465,92L465.5,92L465.5,89L466.5,89L466.5,102L467,102L467,155L467.5,155L467.5,157L468,157L468,95L468.5,95L468.5,70L469,70L469,77L469.5,77L469.5,83L470,83L470,84L470.5,84L470.5,156L471,156L471,158L471.5,158L471.5,85L472,85L472,72L472.5,72L472.5,75L473,75L473,82L473.5,82L473.5,95L474,95L474,156L474.5,156L474.5,156L475.5,156L475.5,100L476,100L476,90L476.5,90L476.5,86L477,86L477,82L477.5,82L477.5,99L478,99L478,156L478.5,156L478.5,158L479,158L479,87L479.5,87L479.5,78L480,78L480,82L480.5,82L480.5,81L481,81L481,87L481.5,87L481.5,152L482,152L482,153L482.5,153L482.5,87L483,87L483,71L483.5,71L483.5,84L484.5,84L484.5,85L485,85L485,85L485.5,85L485.5,149L486,149L486,152L486.5,152L486.5,130L487,130L487,82L487.5,82L487.5,77L488,77L488,87L488.5,87L488.5,91L489,91L489,132L489.5,132L489.5,147L490,147L490,69L490.5,69L490.5,62L491,62L491,55L491.5,55L491.5,64L492,64L492,65L492.5,65L492.5,137L493.5,137L493.5,144L494,144L494,58L494.5,58L494.5,58L495,58L495,68L495.5,68L495.5,71L496,71L496,78L496.5,78L496.5,146L497,146L497,150L497.5,150L497.5,77L498,77L498,51L498.5,51L498.5,59L499,59L499,59L499.5,59L499.5,75L500,75L500,144L500.5,144L500.5,151L501,151L501,64L501.5,64L501.5,53L502.5,53L502.5,61L503,61L503,60L503.5,60L503.5,54L504,54L504,141L504.5,141L504.5,146L505,146L505,70L505.5,70L505.5,43L506,43L506,53L506.5,53L506.5,64L507,64L507,70L507.5,70L507.5,139L508,139L508,139L508.5,139L508.5,99L509,99L509,46L509.5,46L509.5,46L510,46L510,63L510.5,63L510.5,69L511.5,69L511.5,137L512,137L512,134L512.5,134L512.5,84L513,84L513,170L513.5,170L513.5,49L514,49L514,60L514.5,60L514.5,70L515,70L515,138L515.5,138L515.5,142L516,142L516,69L516.5,69L516.5,50L517,50L517,64L517.5,64L517.5,60L518,60L518,80L518.5,80L518.5,144L519,144L519,154L519.5,154L519.5,86L520.5,86L520.5,66L521,66L521,73L521.5,73L521.5,64L522,64L522,71L522.5,71L522.5,147L523,147L523,153L523.5,153L523.5,84L524,84L524,77L524.5,77L524.5,79L525,79L525,75L525.5,75L525.5,79L526,79L526,147L526.5,147L526.5,150L527,150L527,77L527.5,77L527.5,64L528,64L528,57L528.5,57L528.5,65L529.5,65L529.5,71L530,71L530,143L530.5,143L530.5,149L531,149L531,70L531.5,70L531.5,56L532,56L532,73L532.5,73L532.5,116L533,116L533,125L533.5,125L533.5,152L534,152L534,150L534.5,150L534.5,64L535,64L535,54L535.5,54L535.5,42L536,42L536,43L536.5,43L536.5,69L537,69L537,144L537.5,144L537.5,151L538.5,151L538.5,63L539,63L539,50L539.5,50L539.5,45L540,45L540,58L540.5,58L540.5,69L541,69L541,145L541.5,145L541.5,148L542,148L542,58L542.5,58L542.5,45L543,45L543,47L543.5,47L543.5,45L544,45L544,56L544.5,56L544.5,132L545,132L545,136L545.5,136L545.5,80L546.5,80L546.5,63L547,63L547,103L547.5,103L547.5,149L548,149L548,108L548.5,108L548.5,145L549,145L549,143L549.5,143L549.5,93L550,93L550,72L550.5,72L550.5,98L551,98L551,132L551.5,132L551.5,85L552,85L552,129L552.5,129L552.5,150L553,150L553,70L553.5,70L553.5,48L554,48L554,28L554.5,28L554.5,35L555.5,35L555.5,51L556,51L556,131L556.5,131L556.5,144L557,144L557,51L557.5,51L557.5,27L558,27L558,31L558.5,31L558.5,42L559,42L559,55L559.5,55L559.5,136L560,136L560,146L560.5,146L560.5,100L561,100L561,38L561.5,38L561.5,41L562,41L562,33L562.5,33L562.5,43L563,43L563,132L563.5,132L563.5,146L564.5,146L564.5,52L565,52L565,26L565.5,26L565.5,40L566,40L566,50L566.5,50L566.5,51L567,51L567,134L567.5,134L567.5,137L568,137L568,59L568.5,59L568.5,33L569,33L569,47L569.5,47L569.5,39L570,39L570,50L570.5,50L570.5,125L571,125L571,135L571.5,135L571.5,60L572,60L572,35L572.5,35L572.5,41L573.5,41L573.5,44L574,44L574,55L574.5,55L574.5,130L575,130L575,126L575.5,126L575.5,94L576,94L576,35L576.5,35L576.5,44L577,44L577,43L577.5,43L577.5,57L578,57L578,123L578.5,123L578.5,123L579,123L579,32L579.5,32L579.5,29L580,29L580,48L580.5,48L580.5,47L581,47L581,43L581.5,43L581.5,124L582.5,124L582.5,116L583,116L583,41L583.5,41L583.5,15L584,15L584,14L584.5,14L584.5,36L585,36L585,49L585.5,49L585.5,114L586,114L586,119L586.5,119L586.5,37L587,37L587,22L587.5,22L587.5,15L588,15L588,31L588.5,31L588.5,17L589,17L589,108L589.5,108L589.5,124L590,124L590,31L590.5,31L590.5,7L591.5,7L591.5,11L592,11L592,14L592.5,14L592.5,22L593,22L593,132L593.5,132L593.5,128L594,128L594,32L594.5,32L594.5,3L595,3L595,3L595.5,3L595.5,9L596,9L596,33L596.5,33L596.5,114L597,114L597,126L597.5,126L597.5,38L598,38L598,2L598.5,2L598.5,3L599,3L599,19L599.5,19L599.5,55L600,55L600,170L599.5,170L599.5,170L599,170L599,170L598.5,170L598.5,170L598,170L598,170L597.5,170L597.5,170L597,170L597,170L596.5,170L596.5,170L596,170L596,170L595.5,170L595.5,170L595,170L595,170L594.5,170L594.5,170L594,170L594,170L593.5,170L593.5,170L593,170L593,170L592.5,170L592.5,170L592,170L592,170L591.5,170L591.5,170L590.5,170L590.5,170L590,170L590,170L589.5,170L589.5,170L589,170L589,170L588.5,170L588.5,170L588,170L588,170L587.5,170L587.5,170L587,170L587,170L586.5,170L586.5,170L586,170L586,170L585.5,170L585.5,170L585,170L585,170L584.5,170L584.5,170L584,170L584,170L583.5,170L583.5,170L583,170L583,170L582.5,170L582.5,170L581.5,170L581.5,170L581,170L581,170L580.5,170L580.5,170L580,170L580,170L579.5,170L579.5,170L579,170L579,170L578.5,170L578.5,170L578,170L578,170L577.5,170L577.5,170L577,170L577,170L576.5,170L576.5,170L576,170L576,170L575.5,170L575.5,170L575,170L575,170L574.5,170L574.5,170L574,170L574,170L573.5,170L573.5,170L572.5,170L572.5,170L572,170L572,170L571.5,170L571.5,170L571,170L571,170L570.5,170L570.5,170L570,170L570,170L569.5,170L569.5,170L569,170L569,170L568.5,170L568.5,170L568,170L568,170L567.5,170L567.5,170L567,170L567,170L566.5,170L566.5,170L566,170L566,170L565.5,170L565.5,170L565,170L565,170L564.5,170L564.5,170L563.5,170L563.5,170L563,170L563,170L562.5,170L562.5,170L562,170L562,170L561.5,170L561.5,170L561,170L561,170L560.5,170L560.5,170L560,170L560,170L559.5,170L559.5,170L559,170L559,170L558.5,170L558.5,170L558,170L558,170L557.5,170L557.5,170L557,170L557,170L556.5,170L556.5,170L556,170L556,170L555.5,170L555.5,170L554.5,170L554.5,170L554,170L554,170L553.5,170L553.5,170L553,170L553,170L552.5,170L552.5,170L552,170L552,170L551.5,170L551.5,170L551,170L551,170L550.5,170L550.5,170L550,170L550,170L549.5,170L549.5,170L549,170L549,170L548.5,170L548.5,170L548,170L548,170L547.5,170L547.5,170L547,170L547,170L546.5,170L546.5,170L545.5,170L545.5,170L545,170L545,170L544.5,170L544.5,170L544,170L544,170L543.5,170L543.5,170L543,170L543,170L542.5,170L542.5,170L542,170L542,170L541.5,170L541.5,170L541,170L541,170L540.5,170L540.5,170L540,170L540,170L539.5,170L539.5,170L539,170L539,170L538.5,170L538.5,170L537.5,170L537.5,170L537,170L537,170L536.5,170L536.5,170L536,170L536,170L535.5,170L535.5,170L535,170L535,170L534.5,170L534.5,170L534,170L534,170L533.5,170L533.5,170L533,170L533,170L532.5,170L532.5,170L532,170L532,170L531.5,170L531.5,170L531,170L531,170L530.5,170L530.5,170L530,170L530,170L529.5,170L529.5,170L528.5,170L528.5,170L528,170L528,170L527.5,170L527.5,170L527,170L527,170L526.5,170L526.5,170L526,170L526,170L525.5,170L525.5,170L525,170L525,170L524.5,170L524.5,170L524,170L524,170L523.5,170L523.5,170L523,170L523,170L522.5,170L522.5,170L522,170L522,170L521.5,170L521.5,170L521,170L521,170L520.5,170L520.5,170L519.5,170L519.5,170L519,170L519,170L518.5,170L518.5,170L518,170L518,170L517.5,170L517.5,170L517,170L517,170L516.5,170L516.5,170L516,170L516,170L515.5,170L515.5,170L515,170L515,170L514.5,170L514.5,170L514,170L514,170L513.5,170L513.5,170L513,170L513,170L512.5,170L512.5,170L512,170L512,170L511.5,170L511.5,170L510.5,170L510.5,170L510,170L510,170L509.5,170L509.5,170L509,170L509,170L508.5,170L508.5,170L508,170L508,170L507.5,170L507.5,170L507,170L507,170L506.5,170L506.5,170L506,170L506,170L505.5,170L505.5,170L505,170L505,170L504.5,170L504.5,170L504,170L504,170L503.5,170L503.5,170L503,170L503,170L502.5,170L502.5,170L501.5,170L501.5,170L501,170L501,170L500.5,170L500.5,170L500,170L500,170L499.5,170L499.5,170L499,170L499,170L498.5,170L498.5,170L498,170L498,170L497.5,170L497.5,170L497,170L497,170L496.5,170L496.5,170L496,170L496,170L495.5,170L495.5,170L495,170L495,170L494.5,170L494.5,170L494,170L494,170L493.5,170L493.5,170L492.5,170L492.5,170L492,170L492,170L491.5,170L491.5,170L491,170L491,170L490.5,170L490.5,170L490,170L490,170L489.5,170L489.5,170L489,170L489,170L488.5,170L488.5,170L488,170L488,170L487.5,170L487.5,170L487,170L487,170L486.5,170L486.5,170L486,170L486,170L485.5,170L485.5,170L485,170L485,170L484.5,170L484.5,170L483.5,170L483.5,170L483,170L483,170L482.5,170L482.5,170L482,170L482,170L481.5,170L481.5,170L481,170L481,170L480.5,170L480.5,170L480,170L480,170L479.5,170L479.5,170L479,170L479,170L478.5,170L478.5,170L478,170L478,170L477.5,170L477.5,170L477,170L477,170L476.5,170L476.5,170L476,170L476,170L475.5,170L475.5,170L474.5,170L474.5,170L474,170L474,170L473.5,170L473.5,170L473,170L473,170L472.5,170L472.5,170L472,170L472,170L471.5,170L471.5,170L471,170L471,170L470.5,170L470.5,170L470,170L470,170L469.5,170L469.5,170L469,170L469,170L468.5,170L468.5,170L468,170L468,170L467.5,170L467.5,170L467,170L467,170L466.5,170L466.5,170L465.5,170L465.5,170L465,170L465,170L464.5,170L464.5,170L464,170L464,170L463.5,170L463.5,170L463,170L463,170L462.5,170L462.5,170L462,170L462,170L461.5,170L461.5,170L461,170L461,170L460.5,170L460.5,170L460,170L460,170L459.5,170L459.5,170L459,170L459,170L458.5,170L458.5,170L458,170L458,170L457.5,170L457.5,170L456.5,170L456.5,170L456,170L456,170L455.5,170L455.5,170L455,170L455,170L454.5,170L454.5,170L454,170L454,170L453.5,170L453.5,170L453,170L453,170L452.5,170L452.5,170L452,170L452,170L451.5,170L451.5,170L451,170L451,170L450.5,170L450.5,170L450,170L450,170L449.5,170L449.5,170L449,170L449,170L448.5,170L448.5,170L447.5,170L447.5,170L447,170L447,170L446.5,170L446.5,170L446,170L446,170L445.5,170L445.5,170L445,170L445,170L444.5,170L444.5,170L444,170L444,170L443.5,170L443.5,170L443,170L443,170L442.5,170L442.5,170L442,170L442,170L441.5,170L441.5,170L441,170L441,170L440.5,170L440.5,170L440,170L440,170L439.5,170L439.5,170L438.5,170L438.5,170L438,170L438,170L437.5,170L437.5,170L437,170L437,170L436.5,170L436.5,170L436,170L436,170L435.5,170L435.5,170L435,170L435,170L434.5,170L434.5,170L434,170L434,170L433.5,170L433.5,170L433,170L433,170L432.5,170L432.5,170L432,170L432,170L431.5,170L431.5,170L431,170L431,170L430.5,170L430.5,170L429.5,170L429.5,170L429,170L429,170L428.5,170L428.5,170L428,170L428,170L427.5,170L427.5,170L427,170L427,170L426.5,170L426.5,170L426,170L426,170L425.5,170L425.5,170L425,170L425,170L424.5,170L424.5,170L424,170L424,170L423.5,170L423.5,170L423,170L423,170L422.5,170L422.5,170L421.5,170L421.5,170L421,170L421,170L420.5,170L420.5,170L420,170L420,170L419.5,170L419.5,170L419,170L419,170L418.5,170L418.5,170L418,170L418,170L417.5,170L417.5,170L417,170L417,170L416.5,170L416.5,170L416,170L416,170L415.5,170L415.5,170L415,170L415,170L414.5,170L414.5,170L414,170L414,170L413.5,170L413.5,170L412.5,170L412.5,170L412,170L412,170L411.5,170L411.5,170L411,170L411,170L410.5,170L410.5,170L410,170L410,170L409.5,170L409.5,170L409,170L409,170L408.5,170L408.5,170L408,170L408,170L407.5,170L407.5,170L407,170L407,170L406.5,170L406.5,170L406,170L406,170L405.5,170L405.5,170L405,170L405,170L404.5,170L404.5,170L403.5,170L403.5,170L403,170L403,170L402.5,170L402.5,170L402,170L402,170L401.5,170L401.5,170L401,170L401,170L400.5,170L400.5,170L400,170L400,170L399.5,170L399.5,170L399,170L399,170L398.5,170L398.5,170L398,170L398,170L397.5,170L397.5,170L397,170L397,170L396.5,170L396.5,170L396,170L396,170L395.5,170L395.5,170L394.5,170L394.5,170L394,170L394,170L393.5,170L393.5,170L393,170L393,170L392.5,170L392.5,170L392,170L392,170L391.5,170L391.5,170L391,170L391,170L390.5,170L390.5,170L390,170L390,170L389.5,170L389.5,170L389,170L389,170L388.5,170L388.5,170L388,170L388,170L387.5,170L387.5,170L387,170L387,170L386.5,170L386.5,170L385.5,170L385.5,170L385,170L385,170L384.5,170L384.5,170L384,170L384,170L383.5,170L383.5,170L383,170L383,170L382.5,170L382.5,170L382,170L382,170L381.5,170L381.5,170L381,170L381,170L380.5,170L380.5,170L380,170L380,170L379.5,170L379.5,170L379,170L379,170L378.5,170L378.5,170L378,170L378,170L377.5,170L377.5,170L376.5,170L376.5,170L376,170L376,170L375.5,170L375.5,170L375,170L375,170L374.5,170L374.5,170L374,170L374,170L373.5,170L373.5,170L373,170L373,170L372.5,170L372.5,170L372,170L372,170L371.5,170L371.5,170L371,170L371,170L370.5,170L370.5,170L370,170L370,170L369.5,170L369.5,170L369,170L369,170L368.5,170L368.5,170L367.5,170L367.5,170L367,170L367,170L366.5,170L366.5,170L366,170L366,170L365.5,170L365.5,170L365,170L365,170L364.5,170L364.5,170L364,170L364,170L363.5,170L363.5,170L363,170L363,170L362.5,170L362.5,170L362,170L362,170L361.5,170L361.5,170L361,170L361,170L360.5,170L360.5,170L360,170L360,170L359.5,170L359.5,170L358.5,170L358.5,170L358,170L358,170L357.5,170L357.5,170L357,170L357,170L356.5,170L356.5,170L356,170L356,170L355.5,170L355.5,170L355,170L355,170L354.5,170L354.5,170L354,170L354,170L353.5,170L353.5,170L353,170L353,170L352.5,170L352.5,170L352,170L352,170L351.5,170L351.5,170L351,170L351,170L350.5,170L350.5,170L349.5,170L349.5,170L349,170L349,170L348.5,170L348.5,170L348,170L348,170L347.5,170L347.5,170L347,170L347,170L346.5,170L346.5,170L346,170L346,170L345.5,170L345.5,170L345,170L345,170L344.5,170L344.5,170L344,170L344,170L343.5,170L343.5,170L343,170L343,170L342.5,170L342.5,170L342,170L342,170L341.5,170L341.5,170L340.5,170L340.5,170L340,170L340,170L339.5,170L339.5,170L339,170L339,170L338.5,170L338.5,170L338,170L338,170L337.5,170L337.5,170L337,170L337,170L336.5,170L336.5,170L336,170L336,170L335.5,170L335.5,170L335,170L335,170L334.5,170L334.5,170L334,170L334,170L333.5,170L333.5,170L333,170L333,170L332.5,170L332.5,170L331.5,170L331.5,170L331,170L331,170L330.5,170L330.5,170L330,170L330,170L329.5,170L329.5,170L329,170L329,170L328.5,170L328.5,170L328,170L328,170L327.5,170L327.5,170L327,170L327,170L326.5,170L326.5,170L326,170L326,170L325.5,170L325.5,170L325,170L325,170L324.5,170L324.5,170L324,170L324,170L323.5,170L323.5,170L322.5,170L322.5,170L322,170L322,170L321.5,170L321.5,170L321,170L321,170L320.5,170L320.5,170L320,170L320,170L319.5,170L319.5,170L319,170L319,170L318.5,170L318.5,170L318,170L318,170L317.5,170L317.5,170L317,170L317,170L316.5,170L316.5,170L316,170L316,170L315.5,170L315.5,170L315,170L315,170L314.5,170L314.5,170L313.5,170L313.5,170L313,170L313,170L312.5,170L312.5,170L312,170L312,170L311.5,170L311.5,170L311,170L311,170L310.5,170L310.5,170L310,170L310,170L309.5,170L309.5,170L309,170L309,170L308.5,170L308.5,170L308,170L308,170L307.5,170L307.5,170L307,170L307,170L306.5,170L306.5,170L305.5,170L305.5,170L305,170L305,170L304.5,170L304.5,170L304,170L304,170L303.5,170L303.5,170L303,170L303,170L302.5,170L302.5,170L302,170L302,170L301.5,170L301.5,170L301,170L301,170L300.5,170L300.5,170L300,170L300,170L299.5,170L299.5,170L299,170L299,170L298.5,170L298.5,170L298,170L298,170L297.5,170L297.5,170L296.5,170L296.5,170L296,170L296,170L295.5,170L295.5,170L295,170L295,170L294.5,170L294.5,170L294,170L294,170L293.5,170L293.5,170L293,170L293,170L292.5,170L292.5,170L292,170L292,170L291.5,170L291.5,170L291,170L291,170L290.5,170L290.5,170L290,170L290,170L289.5,170L289.5,170L289,170L289,170L288.5,170L288.5,170L287.5,170L287.5,170L287,170L287,170L286.5,170L286.5,170L286,170L286,170L285.5,170L285.5,170L285,170L285,170L284.5,170L284.5,170L284,170L284,170L283.5,170L283.5,170L283,170L283,170L282.5,170L282.5,170L282,170L282,170L281.5,170L281.5,170L281,170L281,170L280.5,170L280.5,170L280,170L280,170L279.5,170L279.5,170L278.5,170L278.5,170L278,170L278,170L277.5,170L277.5,170L277,170L277,170L276.5,170L276.5,170L276,170L276,170L275.5,170L275.5,170L275,170L275,170L274.5,170L274.5,170L274,170L274,170L273.5,170L273.5,170L273,170L273,170L272.5,170L272.5,170L272,170L272,170L271.5,170L271.5,170L271,170L271,170L270.5,170L270.5,170L269.5,170L269.5,170L269,170L269,170L268.5,170L268.5,170L268,170L268,170L267.5,170L267.5,170L267,170L267,170L266.5,170L266.5,170L266,170L266,170L265.5,170L265.5,170L265,170L265,170L264.5,170L264.5,170L264,170L264,170L263.5,170L263.5,170L263,170L263,170L262.5,170L262.5,170L262,170L262,170L261.5,170L261.5,170L260.5,170L260.5,170L260,170L260,170L259.5,170L259.5,170L259,170L259,170L258.5,170L258.5,170L258,170L258,170L257.5,170L257.5,170L257,170L257,170L256.5,170L256.5,170L256,170L256,170L255.5,170L255.5,170L255,170L255,170L254.5,170L254.5,170L254,170L254,170L253.5,170L253.5,170L253,170L253,170L252.5,170L252.5,170L251.5,170L251.5,170L251,170L251,170L250.5,170L250.5,170L250,170L250,170L249.5,170L249.5,170L249,170L249,170L248.5,170L248.5,170L248,170L248,170L247.5,170L247.5,170L247,170L247,170L246.5,170L246.5,170L246,170L246,170L245.5,170L245.5,170L245,170L245,170L244.5,170L244.5,170L244,170L244,170L243.5,170L243.5,170L242.5,170L242.5,170L242,170L242,170L241.5,170L241.5,170L241,170L241,170L240.5,170L240.5,170L240,170L240,170L239.5,170L239.5,170L239,170L239,170L238.5,170L238.5,170L238,170L238,170L237.5,170L237.5,170L237,170L237,170L236.5,170L236.5,170L236,170L236,170L235.5,170L235.5,170L235,170L235,170L234.5,170L234.5,170L233.5,170L233.5,170L233,170L233,170L232.5,170L232.5,170L232,170L232,170L231.5,170L231.5,170L231,170L231,170L230.5,170L230.5,170L230,170L230,170L229.5,170L229.5,170L229,170L229,170L228.5,170L228.5,170L228,170L228,170L227.5,170L227.5,170L227,170L227,170L226.5,170L226.5,170L226,170L226,170L225.5,170L225.5,170L224.5,170L224.5,170L224,170L224,170L223.5,170L223.5,170L223,170L223,170L222.5,170L222.5,170L222,170L222,170L221.5,170L221.5,170L221,170L221,170L220.5,170L220.5,170L220,170L220,170L219.5,170L219.5,170L219,170L219,170L218.5,170L218.5,170L218,170L218,170L217.5,170L217.5,170L217,170L217,170L216.5,170L216.5,170L215.5,170L215.5,170L215,170L215,170L214.5,170L214.5,170L214,170L214,170L213.5,170L213.5,170L213,170L213,170L212.5,170L212.5,170L212,170L212,170L211.5,170L211.5,170L211,170L211,170L210.5,170L210.5,170L210,170L210,170L209.5,170L209.5,170L209,170L209,170L208.5,170L208.5,170L208,170L208,170L207.5,170L207.5,170L206.5,170L206.5,170L206,170L206,170L205.5,170L205.5,170L205,170L205,170L204.5,170L204.5,170L204,170L204,170L203.5,170L203.5,170L203,170L203,170L202.5,170L202.5,170L202,170L202,170L201.5,170L201.5,170L201,170L201,170L200.5,170L200.5,170L200,170L200,170L199.5,170L199.5,170L199,170L199,170L198.5,170L198.5,170L197.5,170L197.5,170L197,170L197,170L196.5,170L196.5,170L196,170L196,170L195.5,170L195.5,170L195,170L195,170L194.5,170L194.5,170L194,170L194,170L193.5,170L193.5,170L193,170L193,170L192.5,170L192.5,170L192,170L192,170L191.5,170L191.5,170L191,170L191,170L190.5,170L190.5,170L189.5,170L189.5,170L189,170L189,170L188.5,170L188.5,170L188,170L188,170L187.5,170L187.5,170L187,170L187,170L186.5,170L186.5,170L186,170L186,170L185.5,170L185.5,170L185,170L185,170L184.5,170L184.5,170L184,170L184,170L183.5,170L183.5,170L183,170L183,170L182.5,170L182.5,170L182,170L182,170L181.5,170L181.5,170L180.5,170L180.5,170L180,170L180,170L179.5,170L179.5,170L179,170L179,170L178.5,170L178.5,170L178,170L178,170L177.5,170L177.5,170L177,170L177,170L176.5,170L176.5,170L176,170L176,170L175.5,170L175.5,170L175,170L175,170L174.5,170L174.5,170L174,170L174,170L173.5,170L173.5,170L173,170L173,170L172.5,170L172.5,170L171.5,170L171.5,170L171,170L171,170L170.5,170L170.5,170L170,170L170,170L169.5,170L169.5,170L169,170L169,170L168.5,170L168.5,170L168,170L168,170L167.5,170L167.5,170L167,170L167,170L166.5,170L166.5,170L166,170L166,170L165.5,170L165.5,170L165,170L165,170L164.5,170L164.5,170L164,170L164,170L163.5,170L163.5,170L162.5,170L162.5,170L162,170L162,170L161.5,170L161.5,170L161,170L161,170L160.5,170L160.5,170L160,170L160,170L159.5,170L159.5,170L159,170L159,170L158.5,170L158.5,170L158,170L158,170L157.5,170L157.5,170L157,170L157,170L156.5,170L156.5,170L156,170L156,170L155.5,170L155.5,170L155,170L155,170L154.5,170L154.5,170L153.5,170L153.5,170L153,170L153,170L152.5,170L152.5,170L152,170L152,170L151.5,170L151.5,170L151,170L151,170L150.5,170L150.5,170L150,170L150,170L149.5,170L149.5,170L149,170L149,170L148.5,170L148.5,170L148,170L148,170L147.5,170L147.5,170L147,170L147,170L146.5,170L146.5,170L146,170L146,170L145.5,170L145.5,170L144.5,170L144.5,170L144,170L144,170L143.5,170L143.5,170L143,170L143,170L142.5,170L142.5,170L142,170L142,170L141.5,170L141.5,170L141,170L141,170L140.5,170L140.5,170L140,170L140,170L139.5,170L139.5,170L139,170L139,170L138.5,170L138.5,170L138,170L138,170L137.5,170L137.5,170L137,170L137,170L136.5,170L136.5,170L135.5,170L135.5,170L135,170L135,170L134.5,170L134.5,170L134,170L134,170L133.5,170L133.5,170L133,170L133,170L132.5,170L132.5,170L132,170L132,170L131.5,170L131.5,170L131,170L131,170L130.5,170L130.5,170L130,170L130,170L129.5,170L129.5,170L129,170L129,170L128.5,170L128.5,170L128,170L128,170L127.5,170L127.5,170L126.5,170L126.5,170L126,170L126,170L125.5,170L125.5,170L125,170L125,170L124.5,170L124.5,170L124,170L124,170L123.5,170L123.5,170L123,170L123,170L122.5,170L122.5,170L122,170L122,170L121.5,170L121.5,170L121,170L121,170L120.5,170L120.5,170L120,170L120,170L119.5,170L119.5,170L119,170L119,170L118.5,170L118.5,170L117.5,170L117.5,170L117,170L117,170L116.5,170L116.5,170L116,170L116,170L115.5,170L115.5,170L115,170L115,170L114.5,170L114.5,170L114,170L114,170L113.5,170L113.5,170L113,170L113,170L112.5,170L112.5,170L112,170L112,170L111.5,170L111.5,170L111,170L111,170L110.5,170L110.5,170L110,170L110,170L109.5,170L109.5,170L108.5,170L108.5,170L108,170L108,170L107.5,170L107.5,170L107,170L107,170L106.5,170L106.5,170L106,170L106,170L105.5,170L105.5,170L105,170L105,170L104.5,170L104.5,170L104,170L104,170L103.5,170L103.5,170L103,170L103,170L102.5,170L102.5,170L102,170L102,170L101.5,170L101.5,170L101,170L101,170L100.5,170L100.5,170L99.5,170L99.5,170L99,170L99,170L98.5,170L98.5,170L98,170L98,170L97.5,170L97.5,170L97,170L97,170L96.5,170L96.5,170L96,170L96,170L95.5,170L95.5,170L95,170L95,170L94.5,170L94.5,170L94,170L94,170L93.5,170L93.5,170L93,170L93,170L92.5,170L92.5,170L92,170L92,170L91.5,170L91.5,170L90.5,170L90.5,170L90,170L90,170L89.5,170L89.5,170L89,170L89,170L88.5,170L88.5,170L88,170L88,170L87.5,170L87.5,170L87,170L87,170L86.5,170L86.5,170L86,170L86,170L85.5,170L85.5,170L85,170L85,170L84.5,170L84.5,170L84,170L84,170L83.5,170L83.5,170L83,170L83,170L82.5,170L82.5,170L81.5,170L81.5,170L81,170L81,170L80.5,170L80.5,170L80,170L80,170L79.5,170L79.5,170L79,170L79,170L78.5,170L78.5,170L78,170L78,170L77.5,170L77.5,170L77,170L77,170L76.5,170L76.5,170L76,170L76,170L75.5,170L75.5,170L75,170L75,170L74.5,170L74.5,170L73.5,170L73.5,170L73,170L73,170L72.5,170L72.5,170L72,170L72,170L71.5,170L71.5,170L71,170L71,170L70.5,170L70.5,170L70,170L70,170L69.5,170L69.5,170L69,170L69,170L68.5,170L68.5,170L68,170L68,170L67.5,170L67.5,170L67,170L67,170L66.5,170L66.5,170L66,170L66,170L65.5,170L65.5,170L64.5,170L64.5,170L64,170L64,170L63.5,170L63.5,170L63,170L63,170L62.5,170L62.5,170L62,170L62,170L61.5,170L61.5,170L61,170L61,170L60.5,170L60.5,170L60,170L60,170L59.5,170L59.5,170L59,170L59,170L58.5,170L58.5,170L58,170L58,170L57.5,170L57.5,170L57,170L57,170L56.5,170L56.5,170L55.5,170L55.5,170L55,170L55,170L54.5,170L54.5,170L54,170L54,170L53.5,170L53.5,170L53,170L53,170L52.5,170L52.5,170L52,170L52,170L51.5,170L51.5,170L51,170L51,170L50.5,170L50.5,170L50,170L50,170L49.5,170L49.5,170L49,170L49,170L48.5,170L48.5,170L48,170L48,170L47.5,170L47.5,170L46.5,170L46.5,170L46,170L46,170L45.5,170L45.5,170L45,170L45,170L44.5,170L44.5,170L44,170L44,170L43.5,170L43.5,170L43,170L43,170L42.5,170L42.5,170L42,170L42,170L41.5,170L41.5,170L41,170L41,170L40.5,170L40.5,170L40,170L40,170L39.5,170L39.5,170L39,170L39,170L38.5,170L38.5,170L37.5,170L37.5,170L37,170L37,170L36.5,170L36.5,170L36,170L36,170L35.5,170L35.5,170L35,170L35,170L34.5,170L34.5,170L34,170L34,170L33.5,170L33.5,170L33,170L33,170L32.5,170L32.5,170L32,170L32,170L31.5,170L31.5,170L31,170L31,170L30.5,170L30.5,170L30,170L30,170L29.5,170L29.5,170L28.5,170L28.5,170L28,170L28,170L27.5,170L27.5,170L27,170L27,170L26.5,170L26.5,170L26,170L26,170L25.5,170L25.5,170L25,170L25,170L24.5,170L24.5,170L24,170L24,170L23.5,170L23.5,170L23,170L23,170L22.5,170L22.5,170L22,170L22,170L21.5,170L21.5,170L21,170L21,170L20.5,170L20.5,170L20,170Z"></path></g><g aria-label="rule" stroke="currentColor"><line x1="20" x2="600" y1="170" y2="170"></line></g><g aria-label="line" fill="none" stroke="#26c1ad" stroke-linejoin="round" stroke-linecap="round"><path d="M23,162L24,162L24,162L25,162L25,162L26,162L26,162L27,160L27,160L28,160L28,161L29,161L30,161L30,161L31,162L31,162L32,162L32,162L33,161L33,161L34,161L34,162L35,162L35,162L36,163L36,163L37,162L37,162L38,162L39,162L39,161L40,161L40,161L41,161L41,161L42,161L42,162L43,162L43,163L44,163L44,163L45,163L45,162L46,162L46,162L47,161L48,161L48,161L49,161L49,162L50,161L50,161L51,161L51,161L52,160L52,160L53,159L53,158L54,159L54,159L55,159L55,159L56,159L57,160L57,160L58,160L58,159L59,159L59,159L60,159L60,160L61,160L61,160L62,159L62,159L63,159L63,159L64,159L64,159L65,159L66,160L66,160L67,161L67,161L68,161L68,162L69,162L69,162L70,162L70,161L71,161L71,161L72,160L72,160L73,160L73,161L74,161L75,161L75,161L76,161L76,161L77,160L77,160L78,160L78,160L79,160L79,160L80,160L80,161L81,161L81,161L82,161L83,161L83,160L84,160L84,160L85,160L85,160L86,160L86,160L87,160L87,160L88,160L88,159L89,159L89,159L90,159L90,158L91,158L92,157L92,157L93,157L93,157L94,156L94,157L95,157L95,157L96,157L96,157L97,157L97,157L98,157L98,156L99,155L99,154L100,154L101,154L101,154L102,154L102,155L103,155L103,154L104,154L104,154L105,153L105,153L106,152L106,153L107,153L107,152L108,152L108,153L109,152L110,151L110,150L111,150L111,150L112,150L112,150L113,150L113,150L114,152L114,152L115,152L115,152L116,151L116,152L117,151L117,150L118,150L119,150L119,150L120,151L120,152L121,153L121,154L122,154L122,153L123,153L123,151L124,151L124,151L125,150L125,150L126,151L126,152L127,151L128,151L128,151L129,152L129,151L130,152L130,151L131,151L131,152L132,151L132,153M137,150L137,150L138,150L138,149L139,149L139,149L140,148L140,148L141,148L141,148L142,149L142,150L143,151L143,153L144,155L144,156L145,156L146,155L146,155L147,154L147,153L148,151L148,151L149,151L149,150L150,150L150,150L151,149L151,148L152,148L152,147L153,147L153,146L154,146L155,146L155,146L156,147L156,147L157,147L157,148L158,149L158,150L159,151L159,151L160,151L160,154L161,156L161,156L162,156L162,157L163,156L164,156L164,155L165,154L165,154L166,154L166,153L167,153L167,153L168,151L168,150L169,150L169,149L170,148L170,148L171,148L171,149L172,150L173,149L173,150L174,150L174,149L175,149L175,147L176,147L176,147L177,147L177,148L178,148L178,148L179,149L179,149L180,150L180,150L181,149L182,149L182,149L183,148L183,147L184,146L184,145L185,144L185,144L186,144L186,143L187,144L187,144L188,144L188,145L189,145L189,145L190,147L191,148L191,148L192,149L192,150L193,151L193,150L194,149L194,149L195,149L195,148L196,147L196,147L197,147L197,146L198,145L199,144L199,145L200,146L200,145L201,146L201,146L202,146L202,146L203,145L203,145L204,145L204,145L205,145L205,145L206,146L206,147L207,147L208,147L208,147L209,147L209,149L210,150L210,150L211,150L211,151L212,151L212,151L213,149L213,148L214,148L214,147L215,147L215,147L216,146L217,146L217,146L218,147L218,147L219,147L219,147L220,147L220,147L221,147L221,147L222,147L222,147L223,147L223,147L224,147L224,146L225,146L226,146L226,145L227,144L227,143L228,143L228,143L229,141L229,140L230,140L230,141L231,141L231,141L232,140L232,142L233,143L233,144L234,144L235,144L235,145L236,145L236,145L237,145L237,145L238,145L238,146L239,145L239,145L240,145L240,144L241,144L241,144L242,145L242,145L243,146L244,146L244,146L245,146L245,146L246,144L246,140L247,140L247,140L248,140L248,140L249,140L249,141L250,144L250,143L251,144L251,144L252,144L253,144L253,143L254,143L254,145L255,145L255,146L256,146L256,145L257,145L257,146L258,145L258,144L259,144L259,144L260,144L260,144L261,144L262,145L262,147L263,149L263,149L264,149L264,147L265,145L265,143L266,141L266,139L267,139L267,139L268,140L268,141L269,141L269,140L270,139L271,139L271,139L272,138L272,137L273,136L273,137L274,138L274,137L275,137L275,137L276,137L276,138L277,136L277,136L278,135L278,135L279,135L280,133L280,132L281,132L281,133L282,134L282,133L283,134L283,135L284,137L284,138L285,137L285,137L286,136L286,137L287,138L287,138L288,138L289,139L289,140L290,141L290,141L291,140L291,140L292,139L292,138L293,137L293,137L294,139L294,138L295,138L295,138L296,139L296,139L297,139L298,136L298,137L299,137L299,136L300,135L300,135L301,134L301,135L302,135L302,135L303,136L303,137L304,137L304,137L305,138L305,138L306,138L307,137L307,138L308,138L308,138L309,137L309,137L310,137L310,137L311,135L311,134L312,133L312,133L313,134L313,133L314,132L315,132L315,132L316,133L316,135L317,135L317,134L318,134L318,133L319,133L319,133L320,131L320,131L321,132L321,130L322,129L322,128L323,128L324,128L324,126L325,125L325,126L326,126L326,127L327,127L327,125L328,125L328,125L329,125L329,125L330,125L330,124L331,126L331,126L332,124L333,124L333,124L334,124L334,126L335,125L335,125L336,126L336,125L337,126L337,126L338,126L338,125L339,127L339,128L340,132L340,136L341,137L342,136L342,135L343,134L343,133L344,128L344,124L345,123L345,124L346,124L346,123L347,122L347,122L348,122L348,122L349,121L349,122L350,123L351,124L351,124L352,123L352,122L353,122L353,124L354,126L354,133L355,136L355,138L356,139L356,138L357,139L357,139L358,137L358,136L359,134L360,133L360,134L361,132L361,128L362,123L362,122L363,122L363,123L364,123L364,123L365,125L365,125L366,124L366,124L367,124L367,124L368,127L369,128L369,126L370,125L370,124L371,124L371,124L372,121L372,119L373,119L373,120L374,120L374,119L375,118L375,117L376,117L376,116L377,115L378,115L378,116L379,116L379,116L380,116L380,116L381,115L381,115L382,115L382,115L383,119L383,120L384,119L384,119L385,120L385,120L386,120L387,116L387,114L388,115L388,115L389,116L389,116L390,115L390,113L391,114L391,114L392,114L392,113L393,114L393,115L394,117L394,116L395,117L396,117L396,117L397,116L397,116L398,117L398,117L399,116L399,116L400,115L400,116L401,116L401,115L402,115L402,114L403,113L403,113L404,113L405,112L405,112L406,112L406,112L407,112L407,113L408,113L408,114L409,116L409,116L410,117L410,118L411,117L411,117L412,117L412,116L413,117L414,115L414,115L415,118L415,118L416,118L416,121L417,121L417,122L418,122L418,121L419,120L419,120L420,120L420,120L421,122L421,125L422,126L423,126L423,126L424,127L424,127L425,125L425,123L426,122L426,123L427,123L427,121L428,119L428,119L429,117L429,116L430,116L431,116L431,116L432,118L432,117L433,118L433,118L434,117L434,116L435,121L435,119L436,120L436,120L437,119L437,120L438,120L438,116L439,116L440,115L440,113L441,113L441,112L442,111L442,111L443,111L443,110L444,113L444,112L445,112L445,112L446,111L446,111L447,113L447,117L448,119L449,120L449,120L450,121L450,119L451,117L451,110L452,108L452,109L453,109L453,108L454,108L454,108L455,108L455,114L456,114L456,114L457,113L458,112L458,112L459,113L459,106L460,105L460,105L461,107L461,108L462,107L462,105L463,105L463,105L464,104L464,104L465,105L465,107L466,107L467,109L467,110L468,111L468,110L469,109L469,106L470,106L470,103L471,103L471,103L472,102L472,102L473,102L473,102L474,103L474,103L475,103L476,105L476,108L477,109L477,109L478,110L478,110L479,110L479,108L480,107L480,106L481,106L481,104L482,103L482,103L483,103L483,102L484,102L485,103L485,102L486,102L486,102L487,108L487,109L488,108L488,109L489,110L489,107L490,107L490,98L491,95L491,92L492,88L492,85L493,85L494,85L494,83L495,83L495,85L496,86L496,88L497,89L497,90L498,93L498,92L499,90L499,89L500,88L500,88L501,88L501,86L502,87L503,87L503,87L504,84L504,83L505,83L505,84L506,82L506,81L507,82L507,84L508,83L508,83L509,87L509,87L510,86L510,86L511,86L512,86L512,85L513,83M517,83L517,85L518,85L518,86L519,87L519,89L520,91L521,94L521,95L522,95L522,94L523,95L523,94L524,94L524,95L525,96L525,98L526,99L526,99L527,99L527,98L528,96L528,93L529,91L530,90L530,90L531,89L531,89L532,87L532,89L533,97L533,104L534,106L534,106L535,105L535,105L536,100L536,90L537,82L537,81L538,81L539,81L539,80L540,81L540,83L541,83L541,83L542,83L542,82L543,81L543,82L544,80L544,78L545,76L545,74L546,77L547,80L547,88L548,103L548,110L549,112L549,113L550,115L550,116L551,115L551,113L552,110L552,107L553,109L553,105L554,102L554,92L555,78L556,73L556,74L557,73L557,70L558,67L558,67L559,68L559,69L560,69L560,70L561,77L561,78L562,80L562,78L563,76L563,76L564,76L565,69L565,67L566,67L566,70L567,71L567,71L568,70L568,71L569,72L569,73L570,71L570,71L571,70L571,70L572,70L572,70L573,69L574,70L574,71L575,71L575,70L576,75L576,75L577,75L577,75L578,75L578,74L579,74L579,65L580,65L580,65L581,66L581,64L582,64L583,63L583,64L584,62L584,57L585,56L585,56L586,55L586,55L587,55L587,56L588,56L588,55L589,51L589,50L590,51L590,50L591,48L592,47L592,45L593,45L593,49L594,49L594,49L595,49L595,48L596,47L596,48L597,46L597,46L598,47L598,46L599,46L599,48L600,51"></path></g><g aria-label="line" fill="none" stroke="black" stroke-width="1.5" stroke-linejoin="round" stroke-linecap="round"><path d="M34,161L35,162L35,162L36,162L36,162L37,162L37,162L38,162L39,161L39,162L40,162L40,162L41,162L41,162L42,162L42,162L43,162L43,162L44,162L44,162L45,162L45,162L46,162L46,162L47,162L48,162L48,162L49,162L49,162L50,162L50,162L51,161L51,161L52,161L52,161L53,161L53,161L54,161L54,161L55,161L55,161L56,161L57,161L57,160L58,160L58,160L59,160L59,160L60,160L60,160L61,160L61,160L62,160L62,160L63,160L63,160L64,159L64,159L65,159L66,159L66,160L67,160L67,160L68,160L68,160L69,160L69,160L70,160L70,160L71,160L71,160L72,160L72,160L73,160L73,160L74,160L75,160L75,160L76,160L76,161L77,161L77,161L78,161L78,161L79,161L79,161L80,161L80,161L81,161L81,161L82,161L83,161L83,160L84,160L84,160L85,160L85,160L86,160L86,160L87,160L87,160L88,160L88,160L89,160L89,160L90,160L90,160L91,160L92,159L92,159L93,159L93,159L94,159L94,159L95,159L95,159L96,158L96,158L97,158L97,158L98,158L98,158L99,157L99,157L100,157L101,157L101,157L102,156L102,156L103,156L103,155L104,155L104,155L105,155L105,155L106,155L106,155L107,154L107,154L108,154L108,154L109,154L110,154L110,153L111,153L111,153L112,153L112,152L113,152L113,152L114,152L114,152L115,152L115,152L116,152L116,152L117,151L117,151L118,151L119,151L119,151L120,151L120,151L121,151L121,151L122,151L122,151L123,151L123,151L124,151L124,151L125,151L125,151L126,151L126,151L127,151L128,151L128,151L129,151L129,151L130,151L130,151L131,151L131,151L132,151L132,152M148,151L148,151L149,151L149,151L150,151L150,151L151,150L151,150L152,150L152,150L153,150L153,150L154,150L155,150L155,150L156,150L156,150L157,150L157,150L158,150L158,149L159,149L159,149L160,149L160,150L161,150L161,150L162,150L162,150L163,150L164,150L164,151L165,151L165,151L166,152L166,152L167,152L167,152L168,152L168,152L169,152L169,152L170,152L170,152L171,152L171,152L172,152L173,152L173,152L174,152L174,152L175,152L175,151L176,150L176,150L177,150L177,150L178,149L178,150L179,149L179,149L180,149L180,149L181,149L182,149L182,149L183,148L183,148L184,148L184,148L185,148L185,148L186,147L186,147L187,147L187,147L188,146L188,146L189,146L189,146L190,147L191,147L191,147L192,147L192,147L193,147L193,147L194,147L194,147L195,147L195,147L196,146L196,147L197,146L197,146L198,146L199,146L199,147L200,147L200,147L201,147L201,147L202,147L202,147L203,147L203,147L204,147L204,147L205,147L205,146L206,146L206,146L207,146L208,146L208,146L209,146L209,147L210,147L210,147L211,147L211,147L212,147L212,147L213,148L213,148L214,147L214,147L215,148L215,147L216,147L217,147L217,148L218,148L218,148L219,148L219,148L220,148L220,148L221,148L221,148L222,148L222,148L223,148L223,148L224,147L224,147L225,147L226,147L226,146L227,146L227,146L228,146L228,146L229,145L229,145L230,145L230,145L231,145L231,144L232,144L232,144L233,144L233,144L234,144L235,144L235,144L236,144L236,143L237,144L237,143L238,143L238,144L239,143L239,143L240,143L240,143L241,143L241,143L242,144L242,144L243,144L244,144L244,145L245,145L245,145L246,145L246,144L247,144L247,144L248,144L248,144L249,144L249,144L250,144L250,143L251,144L251,143L252,143L253,143L253,143L254,143L254,144L255,144L255,144L256,144L256,144L257,143L257,143L258,143L258,143L259,143L259,143L260,143L260,143L261,144L262,145L262,145L263,146L263,146L264,145L264,145L265,145L265,145L266,144L266,144L267,144L267,144L268,144L268,144L269,144L269,143L270,143L271,143L271,143L272,142L272,142L273,142L273,141L274,141L274,141L275,141L275,141L276,140L276,140L277,138L277,138L278,138L278,138L279,137L280,137L280,137L281,136L281,136L282,136L282,136L283,136L283,136L284,136L284,136L285,136L285,136L286,136L286,136L287,136L287,136L288,136L289,136L289,136L290,136L290,137L291,137L291,136L292,137L292,137L293,137L293,137L294,138L294,138L295,138L295,138L296,138L296,138L297,138L298,138L298,138L299,138L299,138L300,138L300,138L301,138L301,138L302,138L302,137L303,137L303,137L304,137L304,137L305,137L305,137L306,137L307,137L307,137L308,137L308,137L309,137L309,137L310,137L310,137L311,136L311,136L312,136L312,136L313,136L313,136L314,136L315,136L315,135L316,135L316,136L317,136L317,135L318,135L318,135L319,135L319,134L320,134L320,134L321,134L321,133L322,132L322,132L323,132L324,132L324,131L325,131L325,130L326,130L326,130L327,130L327,130L328,129L328,129L329,129L329,129L330,128L330,128L331,127L331,127L332,126L333,126L333,126L334,126L334,126L335,126L335,125L336,125L336,125L337,125L337,125L338,126L338,125L339,126L339,126L340,127L340,128L341,128L342,128L342,128L343,128L343,128L344,128L344,127L345,127L345,128L346,127L346,127L347,127L347,127L348,127L348,127L349,127L349,127L350,127L351,127L351,127L352,126L352,126L353,126L353,126L354,127L354,128L355,128L355,127L356,127L356,127L357,127L357,128L358,129L358,129L359,129L360,129L360,129L361,129L361,129L362,129L362,129L363,129L363,129L364,129L364,130L365,130L365,130L366,129L366,129L367,130L367,130L368,130L369,130L369,128L370,127L370,126L371,126L371,126L372,126L372,125L373,123L373,123L374,123L374,122L375,122L375,122L376,122L376,122L377,121L378,121L378,121L379,121L379,120L380,120L380,119L381,119L381,119L382,118L382,118L383,118L383,118L384,118L384,117L385,118L385,118L386,117L387,117L387,117L388,117L388,116L389,116L389,117L390,116L390,116L391,116L391,116L392,116L392,116L393,116L393,116L394,116L394,116L395,116L396,116L396,117L397,117L397,117L398,116L398,115L399,115L399,116L400,115L400,116L401,116L401,115L402,115L402,115L403,115L403,115L404,115L405,115L405,115L406,115L406,115L407,115L407,115L408,115L408,114L409,115L409,115L410,115L410,115L411,115L411,115L412,115L412,115L413,115L414,115L414,115L415,115L415,115L416,115L416,116L417,116L417,117L418,117L418,117L419,117L419,117L420,118L420,118L421,119L421,120L422,120L423,120L423,121L424,121L424,121L425,121L425,121L426,122L426,122L427,122L427,122L428,122L428,122L429,122L429,121L430,121L431,121L431,121L432,121L432,121L433,121L433,121L434,121L434,120L435,121L435,121L436,120L436,119L437,119L437,119L438,119L438,118L439,118L440,118L440,117L441,117L441,116L442,116L442,116L443,116L443,116L444,116L444,116L445,115L445,115L446,115L446,114L447,115L447,116L448,116L449,116L449,116L450,115L450,114L451,114L451,113L452,113L452,113L453,113L453,113L454,112L454,112L455,112L455,113L456,114L456,114L457,113L458,112L458,112L459,112L459,112L460,112L460,112L461,112L461,112L462,111L462,109L463,108L463,108L464,108L464,108L465,108L465,108L466,108L467,109L467,109L468,109L468,109L469,108L469,108L470,108L470,106L471,106L471,106L472,106L472,106L473,105L473,105L474,105L474,105L475,105L476,105L476,106L477,106L477,106L478,106L478,107L479,107L479,106L480,106L480,106L481,106L481,105L482,105L482,105L483,105L483,105L484,105L485,105L485,105L486,105L486,104L487,106L487,106L488,106L488,107L489,106L489,106L490,105L490,104L491,103L491,102L492,101L492,100L493,100L494,99L494,98L495,97L495,97L496,96L496,96L497,96L497,96L498,95L498,95L499,94L499,93L500,93L500,92L501,92L501,90L502,89L503,88L503,87L504,86L504,86L505,86L505,87L506,86L506,86L507,86L507,86L508,86L508,86L509,87L509,87L510,86L510,86L511,85L512,85L512,85L513,85M528,92L528,92L529,92L530,92L530,93L531,93L531,93L532,93L532,93L533,95L533,97L534,97L534,97L535,96L535,96L536,95L536,94L537,94L537,94L538,94L539,93L539,92L540,91L540,90L541,90L541,90L542,90L542,89L543,88L543,88L544,87L544,87L545,86L545,86L546,86L547,87L547,88L548,89L548,88L549,88L549,88L550,89L550,89L551,91L551,95L552,95L552,95L553,95L553,95L554,95L554,94L555,93L556,93L556,92L557,92L557,92L558,91L558,91L559,91L559,90L560,91L560,91L561,92L561,91L562,89L562,84L563,82L563,82L564,82L565,80L565,79L566,76L566,74L567,72L567,72L568,72L568,72L569,71L569,72L570,72L570,72L571,72L571,71L572,72L572,72L573,72L574,72L574,72L575,72L575,71L576,71L576,71L577,71L577,72L578,72L578,72L579,71L579,70L580,70L580,71L581,71L581,70L582,70L583,69L583,69L584,68L584,67L585,67L585,67L586,66L586,66L587,65L587,64L588,63L588,63L589,62L589,61L590,61L590,59L591,58L592,56L592,55L593,54L593,54L594,55L594,55L595,54L595,52L596,51L596,50L597,50L597,50L598,50L598,50L599,49L599,49L600,49"></path></g></svg>