<svg id="Layer_1" data-name="Layer 1" xmlns="http://www.w3.org/2000/svg" viewBox="0 0 116.73 96.77"><defs><style>.cls-1{fill:#414142;}.cls-2{fill:#a33948;}</style></defs><title>contact</title><path class="cls-1" d="M16.29,33a45.08,45.08,0,0,1,83.76-2.6,11.65,11.65,0,0,1,1.29-.07,8.36,8.36,0,0,1,2.41.33,48.42,48.42,0,0,0-90.83,1.94h.29A11.35,11.35,0,0,1,16.29,33Z"/><path class="cls-1" d="M102.74,58A45.09,45.09,0,0,1,18.54,68.9a16.39,16.39,0,0,1-2.06,1.28l-.81.4a48.62,48.62,0,0,0,8.81,12,48.39,48.39,0,0,0,82.07-27.06c-.35.31-.71.61-1.07.89A14.52,14.52,0,0,1,102.74,58Z"/><path class="cls-2" d="M58.78,90.7A40.94,40.94,0,0,0,98.51,59.61a14.35,14.35,0,0,1-1.61.33,11.84,11.84,0,0,1-1.75.13,9,9,0,0,1-4.53-1.14,10.84,10.84,0,0,1-4.14,2.38,30,30,0,0,1-52,6,10.35,10.35,0,0,1-5,2.1,12.27,12.27,0,0,1-1.79.13,9,9,0,0,1-5.14-1.48l-.22-.15-.18.16a41.36,41.36,0,0,0,7.7,10.66A40.66,40.66,0,0,0,58.78,90.7Z"/><path class="cls-2" d="M86.27,31.72a4,4,0,0,1,3.53,2.16,10.86,10.86,0,0,1,5.75-3.54,40.42,40.42,0,0,0-74.9,2.73l.21.11a7.53,7.53,0,0,1,3.92,6,9,9,0,0,1,0,2.64,11.5,11.5,0,0,1,5.14-2.22A29.61,29.61,0,0,1,84.41,32.2,4,4,0,0,1,86.27,31.72Z"/><path class="cls-2" d="M8.61,68.85h0Z"/><path class="cls-2" d="M14.86,44.52l-.17-.12Z"/><path class="cls-2" d="M15.44,44.79l-.21-.08Z"/><path class="cls-2" d="M14.61,44.34l-.24-.2Z"/><path class="cls-2" d="M9.32,63.66l0,0Z"/><path class="cls-2" d="M9.13,63.51l.06.05Z"/><path class="cls-2" d="M16.28,36.51l.09,0Z"/><path class="cls-2" d="M8,68.83l-.34,0Z"/><path class="cls-2" d="M7,68.73l-.32,0Z"/><path class="cls-2" d="M6.54,68.65l-.29-.07Z"/><path class="cls-2" d="M6.14,68.56l-.37-.11Z"/><path class="cls-2" d="M8.45,68.84h0Z"/><path class="cls-2" d="M15.92,36.36l.05,0Z"/><path class="cls-2" d="M7.51,68.79l-.42-.05Z"/><path class="cls-2" d="M9.55,63.82h0Z"/><path class="cls-2" d="M5.7,68.43l-.3-.11Z"/><path class="cls-2" d="M3.86,67.5a3.15,3.15,0,0,1-.29-.22A3.15,3.15,0,0,0,3.86,67.5Z"/><path class="cls-2" d="M15.46,36.22l.09,0Z"/><path class="cls-2" d="M4.17,67.72,4,67.57Z"/><path class="cls-2" d="M4.55,67.94l-.28-.16Z"/><path class="cls-2" d="M5.28,68.28,5,68.17Z"/><path class="cls-2" d="M4.93,68.13,4.59,68Z"/><path class="cls-2" d="M15.14,44.67l-.18-.1Z"/><path class="cls-2" d="M33,44.8l.13.11Z"/><path class="cls-2" d="M32.51,44.45a1.88,1.88,0,0,1,.18.12A1.88,1.88,0,0,0,32.51,44.45Z"/><path class="cls-2" d="M32.08,44.2l.13.07Z"/><path class="cls-2" d="M32.71,44.59l.2.15Z"/><path class="cls-2" d="M32.3,44.32l.13.08Z"/><path class="cls-2" d="M31.37,43.93l.14,0Z"/><path class="cls-2" d="M31.61,44l.14.05Z"/><path class="cls-2" d="M31.85,44.1l.13.06Z"/><path class="cls-2" d="M33.17,45l.11.11Z"/><path class="cls-2" d="M9.75,63.93l.06,0Z"/><path class="cls-2" d="M31.11,43.87l.15,0Z"/><path class="cls-2" d="M33.85,45.82a.64.64,0,0,1,.08.14A.64.64,0,0,0,33.85,45.82Z"/><path class="cls-2" d="M34.27,46.58l.12.28Z"/><path class="cls-2" d="M34.13,46.31a2,2,0,0,1,.13.25A2,2,0,0,0,34.13,46.31Z"/><path class="cls-2" d="M33.35,45.17l.1.12Z"/><path class="cls-2" d="M33.53,45.38l.09.12Z"/><path class="cls-2" d="M33.69,45.59l.09.13Z"/><path class="cls-2" d="M34,46.06a1.4,1.4,0,0,0,.1.16A1.4,1.4,0,0,1,34,46.06Z"/><path class="cls-2" d="M12.17,64.37h0Z"/><path class="cls-2" d="M10.72,64.28h0Z"/><path class="cls-2" d="M11,64.32l.09,0Z"/><path class="cls-2" d="M11.59,64.38h0Z"/><path class="cls-2" d="M11.26,64.36h0Z"/><path class="cls-2" d="M30.83,43.81l.18,0Z"/><path class="cls-2" d="M10.19,64.13l.06,0Z"/><path class="cls-2" d="M10.48,64.22h0Z"/><path class="cls-2" d="M10,64l.07,0Z"/><path class="cls-2" d="M30,43.74h0Z"/><path class="cls-2" d="M12.49,64.35h0Z"/><path class="cls-2" d="M30.48,43.77l.27,0Z"/><path class="cls-2" d="M30.2,43.75l.24,0Z"/><path class="cls-2" d="M28.94,43.82l.3,0Z"/><path class="cls-2" d="M29.63,43.75h0Z"/><path class="cls-2" d="M29.33,43.77h0Z"/><path class="cls-2" d="M83.75,57.34l-.21-.1Z"/><path class="cls-2" d="M63,60.75h0Z"/><path class="cls-2" d="M62.65,60.72h0Z"/><path class="cls-2" d="M63.33,60.77h0Z"/><path class="cls-2" d="M63.76,60.75h0Z"/><path class="cls-2" d="M62.29,60.65h0Z"/><path class="cls-2" d="M72.6,58.48l-.06,0Z"/><path class="cls-2" d="M72.21,58.25l-.07,0Z"/><path class="cls-2" d="M9.4,68.82l-.32,0Z"/><path class="cls-2" d="M53.75,62.17h0Z"/><path class="cls-2" d="M73,58.66l0,0Z"/><path class="cls-2" d="M54.14,62.12l-.29,0Z"/><path class="cls-2" d="M62,60.56l-.06,0Z"/><path class="cls-2" d="M61.66,60.44l0,0Z"/><path class="cls-2" d="M61.07,60.13l-.06,0Z"/><path class="cls-2" d="M61.36,60.3l0,0Z"/><path class="cls-2" d="M86.09,57.6a3,3,0,0,1-.41,0A3,3,0,0,0,86.09,57.6Z"/><path class="cls-2" d="M84.82,57.63l-.26,0Z"/><path class="cls-2" d="M84.48,57.57l-.32-.08Z"/><path class="cls-2" d="M34.43,47l.08.2Z"/><path class="cls-2" d="M84.09,57.47l-.24-.09Z"/><path class="cls-2" d="M53.05,62.2h0Z"/><path class="cls-2" d="M73.39,58.83l-.07,0Z"/><path class="cls-2" d="M85.33,57.66h0Z"/><path class="cls-2" d="M85.19,57.65h0Z"/><path class="cls-2" d="M83.45,57.19,83.18,57Z"/><path class="cls-2" d="M74.67,59.08h0Z"/><path class="cls-2" d="M73.79,59h0Z"/><path class="cls-2" d="M74.22,59h0Z"/><path class="cls-2" d="M75.55,59.08h0Z"/><path class="cls-2" d="M75.07,59.1h0Z"/><path class="cls-2" d="M53.45,62.19h0Z"/><path class="cls-2" d="M110.08,53.75l-.06,0Z"/><path class="cls-2" d="M109.23,53.28l0,0Z"/><path class="cls-2" d="M109.76,53.61l0,0Z"/><path class="cls-2" d="M109.49,53.46l0,0Z"/><path class="cls-2" d="M47.88,45.36l-.06,0Z"/><path class="cls-2" d="M47.58,45.3h0Z"/><path class="cls-2" d="M48,45.41h0Z"/><path class="cls-2" d="M47.73,45.32h0Z"/><path class="cls-2" d="M110.37,53.84h0Z"/><path class="cls-2" d="M52.65,62.19h0Z"/><path class="cls-2" d="M111.42,54h0Z"/><path class="cls-2" d="M10.72,68.69l-.56.07Z"/><path class="cls-2" d="M110.73,53.91h0Z"/><path class="cls-2" d="M111.08,54h0Z"/><path class="cls-2" d="M10,68.78l-.37,0Z"/><path class="cls-2" d="M50.86,61.7l0,0Z"/><path class="cls-2" d="M51.19,61.86l-.07,0Z"/><path class="cls-2" d="M50.58,61.52l-.06,0Z"/><path class="cls-2" d="M51.88,62.08l-.07,0Z"/><path class="cls-2" d="M52.28,62.15h0Z"/><path class="cls-2" d="M51.53,62h0Z"/><path class="cls-2" d="M48.94,47s0,0,0-.08S48.93,47,48.94,47Z"/><path class="cls-2" d="M48.3,45.6l0,0Z"/><path class="cls-2" d="M48.69,46.16l0-.07Z"/><path class="cls-2" d="M48.61,46l0-.06Z"/><path class="cls-2" d="M48.15,45.49h0Z"/><path class="cls-2" d="M48.83,46.54a.31.31,0,0,1,0-.08A.31.31,0,0,0,48.83,46.54Z"/><path class="cls-2" d="M48.89,46.75s0,0,0-.08S48.88,46.72,48.89,46.75Z"/><path class="cls-2" d="M48.77,46.34l0-.07Z"/><path class="cls-2" d="M48.52,45.85l0-.05Z"/><path class="cls-2" d="M114,49.39l0,0Z"/><path class="cls-2" d="M113.93,49.33l0,0Z"/><path class="cls-2" d="M114.29,49.47h0Z"/><path class="cls-2" d="M88.37,53.39h0Z"/><path class="cls-2" d="M113.83,49.26l0,0Z"/><path class="cls-2" d="M113.55,48.93l0,0Z"/><path class="cls-2" d="M113.63,49l0,0Z"/><path class="cls-2" d="M114.63,49.51h0Z"/><path class="cls-2" d="M101.51,36.14s0,0,0,0S101.52,36.15,101.51,36.14Z"/><path class="cls-2" d="M102.94,40.29h0Z"/><path class="cls-2" d="M100.69,35.92h0Z"/><path class="cls-2" d="M113.74,49.18l0,0Z"/><path class="cls-2" d="M114.43,49.49h0Z"/><path class="cls-2" d="M114.74,49.5h0Z"/><path class="cls-2" d="M113.49,48.8a.08.08,0,0,0,0,.05A.08.08,0,0,1,113.49,48.8Z"/><path class="cls-2" d="M114.16,49.44h0Z"/><path class="cls-2" d="M102.49,40.2l-.12,0Z"/><path class="cls-2" d="M102.89,40.29l-.34-.07Z"/><path class="cls-2" d="M102.31,40.14l-.13,0Z"/><path class="cls-2" d="M100.41,33.71h0Z"/><path class="cls-2" d="M101,33.67h0Z"/><path class="cls-2" d="M102.12,40.07l-.18-.08Z"/><path class="cls-2" d="M100.71,33.68h0Z"/><path class="cls-2" d="M113.35,48.36a.09.09,0,0,0,0,0A.09.09,0,0,1,113.35,48.36Z"/><path class="cls-2" d="M113.43,48.67a.08.08,0,0,1,0,0A.08.08,0,0,0,113.43,48.67Z"/><path class="cls-2" d="M101,35.91h0Z"/><path class="cls-2" d="M113.38,48.52l0,0Z"/><path class="cls-2" d="M101.44,36.09l0,0Z"/><path class="cls-2" d="M101.11,35.93h0Z"/><path class="cls-2" d="M101.35,36l0,0Z"/><path class="cls-2" d="M101.24,36h0Z"/><path class="cls-2" d="M80.72,39.58l0,0Z"/><path class="cls-2" d="M77.05,54.54l0,0Z"/><path class="cls-2" d="M76.88,54.47l0,0Z"/><path class="cls-2" d="M76.71,54.38l0,0Z"/><path class="cls-2" d="M77.66,54.64h0Z"/><path class="cls-2" d="M77.23,54.59h0Z"/><path class="cls-2" d="M77.85,54.64h0Z"/><path class="cls-2" d="M77.46,54.63h0Z"/><path class="cls-2" d="M79.86,39.43h0Z"/><path class="cls-2" d="M80.86,39.66l0,0Z"/><path class="cls-2" d="M88.49,53.38h0Z"/><path class="cls-2" d="M111.79,54h0Z"/><path class="cls-2" d="M80.22,39.43h0Z"/><path class="cls-2" d="M80.05,39.42h0Z"/><path class="cls-2" d="M80.58,39.52l0,0Z"/><path class="cls-2" d="M80.41,39.47h0Z"/><path class="cls-2" d="M55.62,57.77h0Z"/><path class="cls-2" d="M9,63.4l0,0Z"/><path class="cls-2" d="M12,64.38h0Z"/><path class="cls-2" d="M15.51,44.81l.3.07Z"/><path class="cls-2" d="M30.72,46.54l0,0Z"/><path class="cls-2" d="M35.23,49.79h0Z"/><path class="cls-2" d="M66.44,56.25h0Z"/><path class="cls-2" d="M47.36,45.3h0Z"/><path class="cls-2" d="M87.32,53l0,0Z"/><path class="cls-2" d="M30.48,46.39l0,0Z"/><path class="cls-2" d="M30.34,46.34h0Z"/><path class="cls-2" d="M30.6,46.46l0,0Z"/><path class="cls-2" d="M29.81,46.29h0Z"/><path class="cls-2" d="M30.15,46.3h0Z"/><path class="cls-2" d="M48.37,45.68s0,0,0,0S48.39,45.69,48.37,45.68Z"/><path class="cls-2" d="M30,46.29h0Z"/><path class="cls-2" d="M66.51,56.25l.24,0Z"/><path class="cls-2" d="M65.41,56.05l.15.08Z"/><path class="cls-2" d="M65.6,56.15l.15.05Z"/><path class="cls-2" d="M65.79,56.21l.2,0Z"/><path class="cls-2" d="M55.76,57.76h0Z"/><path class="cls-2" d="M66,56.25h0Z"/><path class="cls-2" d="M54.8,57.54l0,0Z"/><path class="cls-2" d="M55.08,57.68h0Z"/><path class="cls-2" d="M54.92,57.61l0,0Z"/><path class="cls-2" d="M55.24,57.73h0Z"/><path class="cls-2" d="M55.4,57.75h0Z"/><path class="cls-2" d="M88.13,53.37h0Z"/><path class="cls-2" d="M79.22,37h0Z"/><path class="cls-2" d="M79.52,37l.27,0Z"/><path class="cls-2" d="M80.12,37.08l.23.08Z"/><path class="cls-2" d="M78.48,37l.32,0Z"/><path class="cls-2" d="M79.08,37h0Z"/><path class="cls-2" d="M78,37l.36,0Z"/><path class="cls-2" d="M34.55,47.27a1.34,1.34,0,0,0,.07.18A1.34,1.34,0,0,1,34.55,47.27Z"/><path class="cls-2" d="M51,41.12h0Z"/><path class="cls-2" d="M34.93,48.61c0,.07,0,.14,0,.22C35,48.75,35,48.68,34.93,48.61Z"/><path class="cls-2" d="M52.56,41.64l.06,0Z"/><path class="cls-2" d="M35,49c0,.08,0,.17,0,.25C35,49.14,35,49.05,35,49Z"/><path class="cls-2" d="M35.32,49.78Z"/><path class="cls-2" d="M35.08,49.35q0,.18.06.39Q35.11,49.53,35.08,49.35Z"/><path class="cls-2" d="M34.85,48.25c0,.07,0,.14,0,.21S34.87,48.32,34.85,48.25Z"/><path class="cls-2" d="M34.66,47.59l.06.18Z"/><path class="cls-2" d="M34.76,47.91c0,.07,0,.13.05.2S34.78,48,34.76,47.91Z"/><path class="cls-2" d="M35.43,49.78h0Z"/><path class="cls-2" d="M51.34,41.18h0Z"/><path class="cls-2" d="M51.65,41.26h0Z"/><path class="cls-2" d="M49.82,41.09h0Z"/><path class="cls-2" d="M52.28,41.49h0Z"/><path class="cls-2" d="M52,41.36l.07,0Z"/><path class="cls-2" d="M50.3,41.07h0Z"/><path class="cls-2" d="M50.65,41.08h0Z"/><path class="cls-2" d="M80.4,37.18l.21.09Z"/><path class="cls-2" d="M79.86,37l.25,0Z"/><path class="cls-2" d="M86.85,52a.64.64,0,0,1,0,.07A.64.64,0,0,0,86.85,52Z"/><path class="cls-2" d="M87.42,53.09l0,0Z"/><path class="cls-2" d="M87.1,52.69l0,.06Z"/><path class="cls-2" d="M87,52.54l0,.07Z"/><path class="cls-2" d="M87.81,53.3l.06,0Z"/><path class="cls-2" d="M88,53.34l.07,0Z"/><path class="cls-2" d="M87.54,53.17l0,0Z"/><path class="cls-2" d="M87,52.38l0,.07Z"/><path class="cls-2" d="M87.67,53.24l.06,0Z"/><path class="cls-2" d="M87.18,52.83l0,.05Z"/><path class="cls-2" d="M86.9,52.2a.14.14,0,0,0,0,.07A.14.14,0,0,1,86.9,52.2Z"/><path class="cls-2" d="M103.5,34.16l0,0Z"/><path class="cls-2" d="M103.27,34h0Z"/><path class="cls-2" d="M12.74,35.93h0Z"/><path class="cls-2" d="M103.45,40.29h0Z"/><path class="cls-2" d="M103.16,40.3h0Z"/><path class="cls-2" d="M103,33.91l.06,0Z"/><path class="cls-2" d="M101.67,33.67h0Z"/><path class="cls-2" d="M12.35,36h0Z"/><path class="cls-2" d="M12,36l.14,0Z"/><path class="cls-2" d="M13.21,35.92h0Z"/><path class="cls-2" d="M102.05,33.7h0Z"/><path class="cls-2" d="M102.7,33.83h0Z"/><path class="cls-2" d="M102.36,33.75h0Z"/><path class="cls-2" d="M13.45,37.82h0Z"/><path class="cls-2" d="M101.39,33.66h0Z"/><path class="cls-2" d="M14.28,38h0Z"/><path class="cls-2" d="M14,37.88h0Z"/><path class="cls-2" d="M14.51,38.05l-.06,0Z"/><path class="cls-2" d="M14.69,38.17a.1.1,0,0,0,0,0A.1.1,0,0,1,14.69,38.17Z"/><path class="cls-2" d="M15.06,36.12l.09,0Z"/><path class="cls-2" d="M13.79,37.84h0Z"/><path class="cls-2" d="M14.58,36h0Z"/><path class="cls-2" d="M14.13,36h0Z"/><path class="cls-2" d="M13.67,35.93h0Z"/><path class="cls-2" d="M13.25,37.82h0Z"/><path class="cls-2" d="M97.09,56h0Z"/><path class="cls-2" d="M96.62,55.94h0Z"/><path class="cls-2" d="M97.62,55.93l-.21,0Z"/><path class="cls-2" d="M98.49,55.85l-.37,0Z"/><path class="cls-2" d="M96.13,55.89h0Z"/><path class="cls-2" d="M98,55.91l-.23,0Z"/><path class="cls-2" d="M25.86,65.94h0Z"/><path class="cls-2" d="M27.39,61.83h0Z"/><path class="cls-2" d="M99.22,52h0Z"/><path class="cls-2" d="M99.51,52h0Z"/><path class="cls-2" d="M27.87,61.89h0Z"/><path class="cls-2" d="M27.63,61.88h0Z"/><path class="cls-2" d="M98.45,51.7l.06,0Z"/><path class="cls-2" d="M98.67,51.81l.06,0Z"/><path class="cls-2" d="M99,51.92h0Z"/><path class="cls-2" d="M27.17,61.76l-.05,0Z"/><path class="cls-2" d="M100.23,52l.39,0Z"/><path class="cls-2" d="M26.83,61.57l0,0Z"/><path class="cls-2" d="M95.65,55.81l-.1,0Z"/><path class="cls-2" d="M100.11,52h0Z"/><path class="cls-2" d="M16.12,44.92l-.25,0Z"/><path class="cls-2" d="M27,61.68l0,0Z"/><path class="cls-2" d="M28.12,61.89h0Z"/><path class="cls-2" d="M16.35,44.93h0Z"/><path class="cls-2" d="M26.78,65.89l-.24,0Z"/><path class="cls-2" d="M26.4,65.92l-.21,0Z"/><path class="cls-2" d="M25.39,65.93h0Z"/><path class="cls-2" d="M27.28,65.84l-.37,0Z"/><path class="cls-2" d="M24.41,65.81l-.1,0Z"/><path class="cls-2" d="M24.88,65.88h0Z"/><path class="cls-2" d="M95.19,55.7h0Z"/><path class="cls-2" d="M94.76,55.56l-.09,0Z"/><path class="cls-2" d="M94.32,55.38h0Z"/><path class="cls-2" d="M94,55.18l-.08,0Z"/><path class="cls-2" d="M23.51,65.56l-.09,0Z"/><path class="cls-2" d="M22.68,65.19l-.09,0Z"/><path class="cls-2" d="M23.05,65.38h0Z"/><path class="cls-2" d="M16.86,44.89l-.32,0Z"/><path class="cls-2" d="M23.93,65.69h0Z"/><path class="cls-1" d="M112.24,53.9a4,4,0,0,0,2.31-1.17A6.83,6.83,0,0,0,116,49.21a3.52,3.52,0,0,1-1,.27l-.18,0h-.5l-.08,0h0l-.07,0,0,0-.07,0,0,0-.07,0,0,0-.09-.08,0,0-.07-.08,0,0a.18.18,0,0,1,0-.07l0,0s0,0,0-.08a.08.08,0,0,1,0-.05.2.2,0,0,1,0-.08.08.08,0,0,0,0,0l0-.1,0,0s0-.07,0-.11a.09.09,0,0,1,0,0,.51.51,0,0,1,0-.17,7.28,7.28,0,0,1,0-1.49l.86-12.86,2.46-.35.09-1.71-2.46.35c.13-2.42.24-4,.32-4.84,0-.2,0-.85.15-1.94l-6,1.7L108.36,33l-1.36.19-.09,1.71,1.35-.19-.8,12-.17,0a18.54,18.54,0,0,1-3,3.65A6.85,6.85,0,0,1,100.62,52l-.39,0h-.72l-.21,0h-.08l-.23,0h0l-.23-.08-.06,0-.16-.08-.06,0-.19-.13a4.07,4.07,0,0,1-1.09-2.67,20.45,20.45,0,0,1,0-5.35,19,19,0,0,1,1.31-5.24c.63-1.48,1.35-2.27,2.17-2.39H101l.12,0h0l.09,0h0l.07,0,0,0,.06,0,0,0,.07,0s0,0,0,0l.09.08a2.4,2.4,0,0,1,.46,1.21,7.24,7.24,0,0,1-.14,2.53l.18.08.06,0,.13,0,.06,0,.12,0,.06,0,.34.07h.56a1.89,1.89,0,0,0,1.44-1,3.56,3.56,0,0,0,.3-2.33,3.79,3.79,0,0,0-1.43-2.6l-.21-.14,0,0-.2-.11h0l-.24-.1-.06,0-.22-.07h0l-.28-.07h-.06l-.25,0h-.06l-.32,0h-1l-.2,0h-.1l-.32,0a8.55,8.55,0,0,0-5.94,3.41,15.26,15.26,0,0,0-2.77,6.49,20.69,20.69,0,0,0-.24,6.49l.06.38A6.84,6.84,0,0,1,90.59,52a2.49,2.49,0,0,1-1.84,1.36l-.2,0H88l-.07,0-.09,0-.06,0-.08,0-.06,0-.08,0,0,0-.09-.06,0,0-.1-.1,0,0-.07-.08,0-.05-.05-.08,0-.06a.35.35,0,0,1,0-.08l0-.07a.36.36,0,0,1,0-.09l0-.07,0-.11a.14.14,0,0,1,0-.07l0-.12a.64.64,0,0,0,0-.07l0-.2a5.19,5.19,0,0,1,0-1.36l1-14.57-5.92.84L81.69,39l0-.29a1.81,1.81,0,0,0-1-1.43l-.21-.09-.05,0-.23-.08h0l-.25,0h-.07l-.27,0H78.8l-.32,0h-.09L78,37a8,8,0,0,0-5.4,3.17,15.09,15.09,0,0,0-2.8,6.25,19.41,19.41,0,0,0-.29,6.65c0,.11,0,.23,0,.34a5.24,5.24,0,0,1-.77,1.44,3.11,3.11,0,0,1-2.07,1.33l-.24,0H66l-.2,0h0l-.15-.05,0,0-.15-.08a1.55,1.55,0,0,1-.56-1.13,5.18,5.18,0,0,1,0-1.36l.86-12.86,2.46-.35.09-1.71L65.78,39l.47-6.78-6,1.7-.42,5.92L58.51,40l-.09,1.71,1.35-.19-.8,12h0a10.67,10.67,0,0,1-1.09,3A2.42,2.42,0,0,1,56,57.73l-.22,0H55.4l-.12,0h0l-.15,0h0l-.12,0,0,0-.08,0,0,0-.1-.08a2,2,0,0,1-.55-1.24,9.64,9.64,0,0,1,0-2q.09-1.28.24-2.61c.15-1.46.26-2.7.31-3.71a14.89,14.89,0,0,0-.09-2.73,4.72,4.72,0,0,0-1.73-3.36l-.25-.16-.06,0-.25-.14h0l-.24-.1-.07,0-.27-.09h-.05l-.25-.07h-.06l-.3-.06H51l-.27,0h-.45l-.4,0h0l-.45,0a6.29,6.29,0,0,0-4.47,3l.15-2.23-5.92.84-.37,5.74-.14.09a8.56,8.56,0,0,1-3,1.17h-.46v0q0-.21-.06-.39l0-.13c0-.08,0-.17,0-.25l0-.14c0-.08,0-.15,0-.22l0-.15c0-.07,0-.14,0-.21s0-.09,0-.14,0-.13-.05-.2,0-.09,0-.14l-.06-.18a.74.74,0,0,1,0-.14,1.34,1.34,0,0,1-.07-.18s0-.08,0-.12l-.08-.2,0-.09-.12-.28v0a2,2,0,0,0-.13-.25l0-.09a1.4,1.4,0,0,1-.1-.16l-.06-.1a.64.64,0,0,0-.08-.14.61.61,0,0,1-.07-.1l-.09-.13-.07-.09-.09-.12-.08-.09-.1-.12-.07-.08L33.17,45l-.07-.07L33,44.8l-.06-.06-.2-.15,0,0a1.88,1.88,0,0,0-.18-.12l-.08-.05-.13-.08-.09,0-.13-.07-.1,0-.13-.06-.1,0L31.61,44l-.1,0-.14,0-.11,0-.15,0-.1,0-.18,0h-.08l-.27,0h0l-.24,0h-1l-.3,0a8.81,8.81,0,0,0-6.05,3.42A15.06,15.06,0,0,0,20,53.74,20.59,20.59,0,0,0,19.75,60a10.23,10.23,0,0,1-2.52,2.64,9.64,9.64,0,0,1-4.32,1.71l-.32,0h-.1l-.21,0h-.69l-.27,0h-.06l-.2,0-.09,0-.17,0h-.08l-.2,0h0l-.23-.07-.06,0L10,64.06,10,64,9.81,64l-.06,0a1,1,0,0,1-.17-.1h0l-.18-.13,0,0-.13-.1-.06-.05L9,63.4l0,0a1.29,1.29,0,0,1-.16-.17,9,9,0,0,1-1.75-4.67,35.11,35.11,0,0,1,0-9,26.43,26.43,0,0,1,2.11-8q1.55-3.3,3.72-3.6l.31,0h.63l.17,0H14l.21.06h0l.17.07.06,0,.13.08a.1.1,0,0,1,0,0,1.09,1.09,0,0,1,.17.13A2.72,2.72,0,0,1,15.71,40a5,5,0,0,1-.24,2.41,3.28,3.28,0,0,1-1.1,1.69l.24.2.08.06.17.12.1,0,.18.1.09,0,.21.08.07,0,.3.07h.06l.25,0h.42l.32,0a2.46,2.46,0,0,0,2-1.33,4.94,4.94,0,0,0,.3-2.91,4.87,4.87,0,0,0-2.48-3.93l-.34-.17-.09,0L16,36.39l-.05,0-.37-.12-.09,0-.31-.08-.09,0-.4-.08h-.08L14.24,36h-.11l-.42,0h-1l-.23,0h-.16l-.26,0L12,36l-.4,0a10.56,10.56,0,0,0-7.68,4.76,21.92,21.92,0,0,0-3.46,9.3,34.23,34.23,0,0,0-.13,9.61c.52,3.66,1.61,6.18,3.29,7.56a3.15,3.15,0,0,0,.29.22l.09.07.22.15.1.06.28.16,0,0,.34.17.1,0,.25.11.12,0,.3.11.07,0,.37.11.11,0,.29.07.14,0,.32,0h.09l.42.05h.11l.34,0H9.08l.32,0h.21l.37,0,.18,0,.56-.07A13.37,13.37,0,0,0,15,67.26a13.54,13.54,0,0,0,3.95-3.17,10.52,10.52,0,0,0,1.33-1.93,5.34,5.34,0,0,0,2,2.77,3.13,3.13,0,0,0,.34.21l.09,0a3,3,0,0,0,.36.18h0l.37.15.09,0,.39.13h0l.38.1.1,0,.43.07h0l.4,0h.91l.21,0h.14l.24,0h.13l.37,0a7.86,7.86,0,0,0,4.42-2.2,11.26,11.26,0,0,0,2.87-4.86,19.17,19.17,0,0,0,.75-6.86,16.8,16.8,0,0,0,3.31-1.44l-.9,13.71,5.91-.84.9-13.76a8.33,8.33,0,0,1,.92-3,2.41,2.41,0,0,1,1.74-1.33h.53l.09,0,.06,0,.1,0h0l.13.07h0l.11.08,0,0,.07.08s0,0,0,0l.07.08,0,.05,0,.09,0,.06,0,.09,0,.07.05.11,0,.07a.56.56,0,0,0,0,.12.31.31,0,0,0,0,.08s0,.08,0,.13,0,0,0,.08l0,.15s0,.05,0,.08,0,.16,0,.25a13.06,13.06,0,0,1,0,2.33c-.06,1-.13,1.95-.21,3,0,.2-.07.66-.12,1.37s-.1,1.45-.13,2.21a11.5,11.5,0,0,0,.07,2,5,5,0,0,0,1.65,3.19,2.23,2.23,0,0,0,.24.19l.06,0a2.26,2.26,0,0,0,.26.16l0,0,.26.13.07,0,.29.11h.05l.28.08.07,0,.33.06h.07a3,3,0,0,0,.31,0h1.26l.29,0A6.7,6.7,0,0,0,58.05,60a7.45,7.45,0,0,0,1.34-2.1,4.26,4.26,0,0,0,1.37,2c.08.07.17.12.25.18l.06,0,.25.15,0,0,.25.12,0,0,.27.1.06,0,.28.08h0l.3.06h.06l.31,0h0l.29,0h.07l.33,0h.07l.36,0a8.55,8.55,0,0,0,4.5-2.27A7.76,7.76,0,0,0,70.34,56,5.17,5.17,0,0,0,71.82,58l.32.23.07,0,.33.2.06,0,.32.16,0,0,.36.14.07,0,.37.11h0l.35.07h.08l.37,0h.08l.38,0h.5l.4,0a5.74,5.74,0,0,0,3.31-1.56,11.35,11.35,0,0,0,2.26-3.14A4.47,4.47,0,0,0,83.18,57l.27.17.09.05.21.1.1,0,.24.09.07,0,.32.08.08,0,.26,0h.86a3,3,0,0,0,.41,0A7.95,7.95,0,0,0,92,53a5,5,0,0,0,1.57,1.91l.33.22.08,0,.35.19h0l.35.15.09,0,.38.13h0l.36.09.1,0,.42.07h.06l.39,0h.89l.21,0h.14l.23,0,.13,0,.37,0q5.58-.8,8.91-6.66c0,.2,0,.39.07.59A5.46,5.46,0,0,0,109,53.05l.22.19,0,0a1.88,1.88,0,0,0,.23.16l0,0,.23.13,0,0,.26.12.06,0,.27.08h0l.29.06h.07l.31,0h.82ZM31.48,57.07a10.12,10.12,0,0,1-1.28,3.36,2.76,2.76,0,0,1-1.81,1.43l-.27,0h-.56l-.17,0h0l-.18-.07-.05,0L27,61.68l0,0-.11-.08,0,0a.86.86,0,0,1-.14-.13,5.52,5.52,0,0,1-.83-2.62,18.62,18.62,0,0,1,.09-5,17.77,17.77,0,0,1,1.37-5.08c.66-1.45,1.44-2.24,2.35-2.37l.18,0h.39l.14,0h0l.13,0,0,0,.08.05,0,0,.08.06,0,0,.1.1a4.46,4.46,0,0,1,.68,1.84,2.2,2.2,0,0,0-1,2.42c.14,1,.6,1.53,1.36,1.6A20.26,20.26,0,0,1,31.48,57.07Zm49.45-6.59a5.17,5.17,0,0,1-1,2.88A3,3,0,0,1,78,54.62l-.19,0h-.44l-.18,0h0l-.17-.05,0,0-.12-.05,0,0-.12-.06,0,0-.16-.11a4,4,0,0,1-1-2.58,18.5,18.5,0,0,1,.06-4.91,15.8,15.8,0,0,1,1.39-5,3.68,3.68,0,0,1,2.69-2.35l.19,0h.42l.13,0h0l.14.05,0,0,.09,0,0,0,.09,0,0,0,.11.1a1.7,1.7,0,0,1,.56,1Z"/></svg>