<svg id="Layer_1" data-name="Layer 1" xmlns="http://www.w3.org/2000/svg" viewBox="0 0 30.76 22.76"><defs><style>.cls-1{fill:#404041;}</style></defs><title>ham</title><path class="cls-1" d="M.65,10.63a2,2,0,0,1,1.9-1c3.56-.06,7.15-.35,10.69-.06,4.59.38,9.13,1.35,13.78,1.24a5.81,5.81,0,0,1,1.37.15c.44.09,1,.19,1,.78a.91.91,0,0,1-.83.94,23,23,0,0,1-3.74.71c-7.28.36-14.55.45-21.68-1.45C2.3,11.7,1.26,11.74.65,10.63Z"/><path class="cls-1" d="M2,19.81a2,2,0,0,1,1.89-1c3.57-.06,7.16-.35,10.69-.06,4.6.38,9.14,1.35,13.78,1.24a6.41,6.41,0,0,1,1.38.15c.44.1,1,.19,1,.78a.91.91,0,0,1-.82.94,23.15,23.15,0,0,1-3.75.71c-7.27.36-14.55.45-21.67-1.44C3.67,20.88,2.63,20.93,2,19.81Z"/><path class="cls-1" d="M.17.94A6.27,6.27,0,0,1,1.27.5,13.53,13.53,0,0,1,6.41.1,162.12,162.12,0,0,0,22.58,1.41a8.94,8.94,0,0,1,1,.05c.61.09,1.15.38,1.12,1.06,0,.48-.51.75-1,.84a19.9,19.9,0,0,1-4.08.69C13.93,3.93,8.16,4,2.49,2.79a10.3,10.3,0,0,1-2-.56C.1,2.05-.2,1.64.17.94Z"/></svg>